<svg width="106" height="80" viewBox="0 0 106 80" fill="none" xmlns="http://www.w3.org/2000/svg">
<path d="M87.5355 44.0576C77.626 44.0576 69.5645 52.1192 69.5645 62.0286C69.5645 71.9375 77.6253 79.9988 87.534 79.9996C89.7654 79.9998 89.8131 76.5214 87.5355 76.5214C79.5441 76.5214 73.0427 70.02 73.0427 62.0286C73.0427 54.0372 79.5441 47.5359 87.5355 47.5359C95.5269 47.5359 102.028 54.0372 102.028 62.0286V66.6663C102.028 68.265 100.728 69.5649 99.1297 69.5649C97.5309 69.5649 96.2311 68.265 96.2311 66.6663C96.2311 66.6663 96.2311 55.1178 96.2311 55.0722C96.2311 52.8243 92.7529 52.8161 92.7529 55.117C91.295 54.0132 89.5005 53.333 87.5355 53.333C82.7415 53.333 78.8398 57.2347 78.8398 62.0286C78.8398 66.8226 82.7415 70.7243 87.5355 70.7243C89.6625 70.7243 91.5882 69.9263 93.1012 68.6528C93.9414 71.1933 96.3108 73.0431 99.1297 73.0431C102.646 73.0431 105.506 70.1831 105.506 66.6663V62.0286C105.506 52.1192 97.4449 44.0576 87.5355 44.0576ZM87.5355 67.246C84.6596 67.246 82.3181 64.9045 82.3181 62.0286C82.3181 59.1527 84.6596 56.8112 87.5355 56.8112C90.4114 56.8112 92.7529 59.1527 92.7529 62.0286C92.7529 64.9045 90.4114 67.246 87.5355 67.246Z" fill="#F44E19"/>
<path d="M64.3478 60.2898H11.0145C9.41108 60.2898 7.93011 59.7779 6.70715 58.921L34.2572 35.7878C34.2572 35.7878 41.829 41.0523 41.8365 41.0575C45.5098 43.6114 50.6294 43.5681 54.3954 41.0575L61.9739 35.7883C61.9739 35.7883 72.5498 44.6805 72.6197 44.7393C74.2601 46.1185 76.627 43.563 74.8573 42.0765L64.9322 33.7314L92.7536 14.3875V39.9057C92.7536 42.1242 96.2319 42.176 96.2319 39.9072V11.0145C96.2319 4.94112 91.2907 0 85.2174 0H11.0145C4.94112 0 0 4.94112 0 11.0145V52.7536C0 58.827 4.94112 63.7681 11.0145 63.7681H64.3475C66.5134 63.7681 66.6242 60.2898 64.3478 60.2898ZM11.0145 3.47826H85.2174C89.0963 3.47826 92.2629 6.43527 92.6719 10.2072L52.4117 38.1997C49.8437 39.9841 46.3881 39.9841 43.8202 38.1997L3.55993 10.2072C3.96895 6.43527 7.13556 3.47826 11.0145 3.47826ZM3.47826 52.7536V14.3875L31.2984 33.7305L4.41039 56.3077C3.83506 55.2438 3.47826 54.0455 3.47826 52.7536Z" fill="#F44E19"/>
</svg>
