<svg width="80" height="80" viewBox="0 0 80 80" fill="none" xmlns="http://www.w3.org/2000/svg">
<path d="M79.5974 74.8184L71.0698 57.9819C70.4709 56.809 69.3569 56.1089 68.0895 56.1089H51.5259C58.718 46.6284 65.708 36.011 65.708 26.8926C65.708 12.0639 54.1764 0 40.0018 0C25.8251 0 14.2915 12.0639 14.2915 26.8926C14.2915 36.0007 21.2846 46.6224 28.48 56.1089H11.9142C10.6399 56.1089 9.52479 56.8112 8.93167 57.9858L0.409161 74.813C-0.164746 75.933 -0.13412 77.2009 0.496036 78.2967C1.1251 79.3792 2.17948 80 3.38869 80H15.9578H25.2806H76.6152C77.8286 80 78.8827 79.3772 79.5066 78.2915C80.1311 77.2048 80.1644 75.9391 79.5974 74.8184ZM68.0895 58.7242C68.4331 58.7242 68.7012 58.8937 68.8628 59.2101L70.4342 62.3128H46.7123C47.6297 61.1447 48.5701 59.9467 49.5181 58.7242H68.0895ZM40.0018 2.61508C52.7978 2.61508 63.2081 13.5059 63.2081 26.8924C63.2081 37.1909 52.4755 50.8557 44.6389 60.8335C42.9703 62.9579 41.38 64.9825 40.002 66.829C38.6251 64.9843 37.0367 62.9611 35.3698 60.8384C27.5293 50.8533 16.7914 37.1783 16.7914 26.8926C16.7914 13.5059 27.2036 2.61508 40.0018 2.61508ZM11.9142 58.7242H21.0286L19.8809 62.3128H9.56932L11.1415 59.2087C11.3014 58.8917 11.5687 58.7242 11.9142 58.7242ZM2.6351 76.9436C2.46619 76.6498 2.45854 76.3487 2.61526 76.0429L5.26682 70.8077H17.1621L15.0581 77.3848H3.38869C3.05869 77.3849 2.80432 77.2345 2.6351 76.9436ZM17.694 77.3849L20.0837 69.9152C20.2114 69.5163 20.1478 69.0776 19.9129 68.7363C19.6779 68.395 19.3004 68.1926 18.8984 68.1926H6.59135L8.24464 64.9281H20.7807C21.3182 64.9281 21.7956 64.5686 21.9661 64.0352L23.6645 58.7242H30.4872C31.4851 60.0113 32.475 61.2719 33.4379 62.4985C35.3543 64.939 37.1664 67.2466 38.6531 69.2796C38.9187 69.7878 39.4293 70.1125 40.0012 70.1126H40.0017C40.5737 70.1126 41.0847 69.788 41.3503 69.2798C42.3331 67.9358 43.4597 66.4707 44.6628 64.9281H71.7588L73.4122 68.1926H45.8479C45.3362 68.1926 44.8762 68.5189 44.6869 69.0163C44.4973 69.5135 44.617 70.0816 44.9886 70.4495L51.9887 77.3849H44.7337L30.7014 63.4819C30.3912 63.1748 29.9532 63.0543 29.5389 63.1627C29.1248 63.2709 28.792 63.5927 28.6565 64.0163L24.3806 77.3848H17.694V77.3849ZM41.0984 77.3849H27.0168L30.4056 66.7906L41.0984 77.3849ZM77.3641 76.9437C77.1959 77.2365 76.9439 77.3849 76.615 77.3849H55.6242L48.9854 70.8078H74.7369L77.3883 76.0426C77.5417 76.3456 77.5336 76.6488 77.3641 76.9437ZM55.7959 26.8926C55.7959 17.7816 48.7108 10.3693 40.0017 10.3693C31.2926 10.3693 24.2075 17.7815 24.2075 26.8926C24.2075 36.0061 31.2926 43.4205 40.0017 43.4205C48.7108 43.4205 55.7959 36.0059 55.7959 26.8926ZM26.7075 26.8926C26.7075 19.2235 32.6712 12.9845 40.0018 12.9845C47.3325 12.9845 53.2962 19.2235 53.2962 26.8926C53.2962 34.564 47.3325 40.8052 40.0018 40.8052C32.6712 40.8052 26.7075 34.5639 26.7075 26.8926Z" fill="#F44E19"/>
</svg>
