<svg width="80" height="80" viewBox="0 0 80 80" fill="none" xmlns="http://www.w3.org/2000/svg">
<path d="M45.5391 0C44.676 0 43.9766 0.699596 43.9766 1.5628C43.9766 2.426 44.676 3.12559 45.5391 3.12559C62.8187 3.12559 76.8763 17.1865 76.8763 34.4688C76.8763 35.332 77.5764 36.0316 78.4388 36.0316C79.3018 36.0316 80.0013 35.332 80.0013 34.4688C80.0013 15.4631 64.5417 0 45.5391 0Z" fill="#F44E19"/>
<path d="M69.0394 36.0324C69.9024 36.0324 70.6019 35.3322 70.6019 34.4696C70.6019 20.6468 59.3586 9.40137 45.5391 9.40137C44.676 9.40137 43.9766 10.1016 43.9766 10.9642C43.9766 11.8274 44.676 12.527 45.5391 12.527C57.6356 12.527 67.4769 22.3701 67.4769 34.4696C67.4769 35.3322 68.1763 36.0324 69.0394 36.0324Z" fill="#F44E19"/>
<path d="M58.0757 34.4693C58.0757 35.3319 58.7751 36.0321 59.6382 36.0321C60.5012 36.0321 61.2007 35.3319 61.2007 34.4693C61.2007 25.8318 54.1749 18.8047 45.5391 18.8047C44.676 18.8047 43.9766 19.5043 43.9766 20.3669C43.9766 21.2301 44.676 21.9297 45.5391 21.9297C52.4519 21.9297 58.0757 27.5545 58.0757 34.4693Z" fill="#F44E19"/>
<path d="M43.9766 29.7689C43.9766 30.6314 44.676 31.331 45.5391 31.331C47.2688 31.331 48.6763 32.7388 48.6763 34.4694C48.6763 35.332 49.3757 36.0322 50.2388 36.0322C51.1012 36.0322 51.8013 35.332 51.8013 34.4694C51.8013 31.0154 48.9918 28.2061 45.5391 28.2061C44.676 28.2061 43.9766 28.9057 43.9766 29.7689Z" fill="#F44E19"/>
<path d="M29.2857 50.7405C29.2857 51.6037 28.5862 52.3033 27.723 52.3033C26.8598 52.3033 26.1602 51.6037 26.1602 50.7405C26.1602 49.8779 26.8598 49.1777 27.723 49.1777C28.5862 49.1777 29.2857 49.8779 29.2857 50.7405Z" fill="#F44E19"/>
<path d="M42.8175 78.118C49.9323 81.6056 58.4919 80.1545 64.1181 74.5272L67.3487 71.296C69.1028 69.5434 69.1034 66.7041 67.3493 64.9502L54.8664 52.4662C53.1153 50.7123 50.276 50.7099 48.523 52.4656L43.2191 57.7711C42.1803 58.8102 40.5769 59.022 39.4075 58.2754C37.5007 57.0563 35.6459 55.712 33.8948 54.2799C33.2264 53.7335 32.2425 53.8324 31.6963 54.5003C31.15 55.1687 31.2489 56.1534 31.9166 56.6992C33.7617 58.2082 35.7154 59.6245 37.7253 60.9089C40.121 62.4394 43.3607 62.0493 45.4286 59.981L50.7337 54.6748C51.2641 54.1437 52.1235 54.1425 52.6563 54.6755L65.1398 67.1601C65.6714 67.6925 65.6727 68.5532 65.1398 69.0849L61.9086 72.3173C57.2218 77.0051 50.1026 78.2084 44.1926 75.3117C22.5416 64.6926 10.7619 47.8547 4.69255 35.599C1.78911 29.7379 2.99455 22.6442 7.69242 17.9467L10.8528 14.7863C11.3826 14.2552 12.2426 14.2534 12.7748 14.7869L25.2595 27.2734C25.7881 27.8015 25.7936 28.6622 25.2583 29.1964L19.9544 34.502C17.8865 36.5702 17.4965 39.8106 19.0266 42.2073C19.9281 43.6181 20.8998 45.0099 21.9154 46.3438C22.4379 47.0306 23.4181 47.163 24.1047 46.6405C24.7914 46.1179 24.9244 45.1375 24.4014 44.4501C23.4382 43.1846 22.5154 41.8636 21.6597 40.5248C20.9132 39.3546 21.125 37.7509 22.1638 36.7118L27.4672 31.4075C29.2207 29.6561 29.2225 26.8156 27.4684 25.0629L14.9849 12.5776C13.2344 10.8238 10.3944 10.8213 8.64213 12.577L5.48295 15.7368C-0.164011 21.383 -1.60688 29.9228 1.89226 36.9866C8.17704 49.6763 20.3779 67.1125 42.8175 78.118Z" fill="#F44E19"/>
</svg>
