<svg width="1920" height="950" viewBox="0 0 1920 950" fill="none" xmlns="http://www.w3.org/2000/svg">
<g clip-path="url(#clip0_3002_51)">
<rect width="1920" height="950" transform="matrix(-1 0 0 1 1919.64 0)" fill="url(#paint0_linear_3002_51)" fill-opacity="0.98"/>
<path opacity="0.02" d="M450.243 548L81.4426 -45.6H233.443L603.043 548H450.243ZM83.8426 548L283.843 219.2L355.043 335.2L235.843 548H83.8426ZM401.443 290.4L331.043 175.2L454.243 -45.6H606.243L401.443 290.4Z" fill="white"/>
<g opacity="0.06">
<path fill-rule="evenodd" clip-rule="evenodd" d="M257.931 600.153H221.135L423.046 950H459.842L257.931 600.153Z" fill="white"/>
<path fill-rule="evenodd" clip-rule="evenodd" d="M21.8408 59.0273H16.8842L177.112 336.632H182.068L21.8408 59.0273Z" fill="white"/>
<path fill-rule="evenodd" clip-rule="evenodd" d="M2.80566 59.0273H-2.15091L158.077 336.632H163.033L2.80566 59.0273Z" fill="white"/>
<path fill-rule="evenodd" clip-rule="evenodd" d="M-16.2285 59.0273H-21.1851L139.042 336.632H143.999L-16.2285 59.0273Z" fill="white"/>
<path fill-rule="evenodd" clip-rule="evenodd" d="M-35.2283 59.0273H-40.1849L120.008 336.632H124.965L-35.2283 59.0273Z" fill="white"/>
<path fill-rule="evenodd" clip-rule="evenodd" d="M-54.2635 59.0273H-59.22L100.973 336.632H105.93L-54.2635 59.0273Z" fill="white"/>
<path fill-rule="evenodd" clip-rule="evenodd" d="M-229.601 -188H-238L34.3699 283.949H42.7686L-229.601 -188Z" fill="white"/>
<path fill-rule="evenodd" clip-rule="evenodd" d="M-28.344 313.32H-47.4129L57.2943 494.717H76.3633L-28.344 313.32Z" fill="white"/>
<path fill-rule="evenodd" clip-rule="evenodd" d="M-16.1594 418.688H-22.837L193.255 793.12H199.933L-16.1594 418.688Z" fill="white"/>
</g>
</g>
<defs>
<linearGradient id="paint0_linear_3002_51" x1="1920" y1="475" x2="7.92769e-06" y2="475" gradientUnits="userSpaceOnUse">
<stop offset="0.262389" stop-color="#15181B"/>
<stop offset="1" stop-color="#647381" stop-opacity="0"/>
</linearGradient>
<clipPath id="clip0_3002_51">
<rect width="1920" height="950" fill="white"/>
</clipPath>
</defs>
</svg>
