<svg width="18" height="18" viewBox="0 0 18 18" fill="none" xmlns="http://www.w3.org/2000/svg">
<path d="M13 1H5C2.79086 1 1 2.79086 1 5V13C1 15.2091 2.79086 17 5 17H13C15.2091 17 17 15.2091 17 13V5C17 2.79086 15.2091 1 13 1Z" stroke="#15181B" stroke-width="1.5" stroke-linecap="round" stroke-linejoin="round"/>
<path d="M12.1999 8.49594C12.2986 9.16173 12.1849 9.84171 11.8749 10.4391C11.5649 11.0366 11.0744 11.5211 10.4732 11.8237C9.87195 12.1263 9.19062 12.2316 8.52609 12.1247C7.86156 12.0178 7.24767 11.704 6.77173 11.2281C6.2958 10.7521 5.98205 10.1382 5.87512 9.47371C5.76819 8.80918 5.87352 8.12785 6.17612 7.52664C6.47873 6.92542 6.96321 6.43493 7.56065 6.12493C8.15809 5.81493 8.83807 5.70121 9.50386 5.79994C10.183 5.90064 10.8117 6.21711 11.2972 6.70258C11.7827 7.18806 12.0992 7.8168 12.1999 8.49594Z" stroke="#15181B" stroke-width="1.5" stroke-linecap="round" stroke-linejoin="round"/>
<path d="M13.3999 4.59991H13.4079" stroke="#15181B" stroke-width="1.5" stroke-linecap="round" stroke-linejoin="round"/>
</svg>
