<svg width="16" height="16" viewBox="0 0 16 16" fill="none" xmlns="http://www.w3.org/2000/svg">
<path d="M9.11264 7.06225L15.0379 15.5H15.0341L14.4746 14.7169L9.1919 7.32307L9.19189 7.32306L8.55899 6.43729L8.55898 6.43727L4.49503 0.749074L4.34547 0.539738H4.0882H1.92015H0.989979L0.962074 0.5H4.50452L8.48597 6.1699L8.85112 6.6899L8.85114 6.68987L9.11264 7.06225ZM11.4929 15.2982L11.637 15.5H11.4955L7.2824 9.50047L6.91725 8.98049L6.49771 9.45768L1.18538 15.5H1.1054L6.62206 9.22562L6.88187 8.93013L6.65575 8.60813L3.37261 3.93275L6.54913 8.37872L6.54914 8.37873L7.08887 9.13411V9.13445L7.18204 9.26486L11.4929 15.2982ZM14.3732 0.5L9.296 6.27491H9.21598L9.27067 6.2127L14.2932 0.5H14.3732Z" stroke="#15181B"/>
</svg>
