<svg width="207" height="30" viewBox="0 0 207 30" fill="none" xmlns="http://www.w3.org/2000/svg">
<path d="M47.5332 0L67.6978 30H74.3665L54.2041 0H47.5332Z" fill="#F44E19"/>
<path d="M33.7334 0L53.898 30H60.5667L40.4021 0H33.7334Z" fill="#F44E19"/>
<path d="M19.9336 0L40.0982 30H46.7669L26.6045 0H19.9336Z" fill="#F44E19"/>
<path d="M26.8333 0L6.66873 30H0L20.1646 0H26.8333Z" fill="#F44E19"/>
<path d="M23.0004 19.2305H18.4004V23.8459H23.0004V19.2305Z" fill="#F44E19"/>
<path d="M23.0004 25.3843H18.4004V29.9997H23.0004V25.3843Z" fill="#F44E19"/>
<path d="M29.1342 19.2305H24.5342V23.8459H29.1342V19.2305Z" fill="#F44E19"/>
<path d="M29.1342 25.3843H24.5342V29.9997H29.1342V25.3843Z" fill="#F44E19"/>
<path d="M85.8662 27.5219V2.30762H96.1673C97.1548 2.30762 98.0749 2.43255 98.9277 2.68242C99.7805 2.90958 100.532 3.31846 101.183 3.90906C101.834 4.49967 102.339 5.31742 102.698 6.36234C103.08 7.40725 103.27 8.74747 103.27 10.383C103.27 11.5415 103.158 12.5296 102.934 13.3474C102.709 14.1651 102.406 14.8352 102.025 15.3577C101.666 15.8802 101.25 16.3004 100.779 16.6184C100.308 16.9364 99.8254 17.1977 99.3317 17.4021L103.977 27.5219H98.894L94.8881 18.1858C94.6188 18.1858 94.3046 18.1858 93.9455 18.1858C93.6088 18.1631 93.261 18.1517 92.9019 18.1517C92.5428 18.1517 92.1838 18.1517 91.8247 18.1517C91.4656 18.1517 91.1402 18.1403 90.8484 18.1176V27.5219H85.8662ZM90.8484 14.1311H95.292C95.7409 14.1311 96.1448 14.0743 96.5039 13.9607C96.863 13.8471 97.1772 13.654 97.4465 13.3814C97.7158 13.0861 97.9178 12.7 98.0524 12.2229C98.2095 11.7459 98.2881 11.1326 98.2881 10.383C98.2881 9.67881 98.2095 9.09956 98.0524 8.64525C97.9178 8.16823 97.7158 7.80478 97.4465 7.55491C97.1772 7.28232 96.863 7.10059 96.5039 7.00973C96.1448 6.89615 95.7409 6.83937 95.292 6.83937H90.8484V14.1311Z" fill="#15181B"/>
<path d="M106.972 27.5219V2.30762H111.954V27.5219H106.972Z" fill="#15181B"/>
<path d="M116.275 27.5219V2.30762H126.071C128.54 2.30762 130.335 2.88686 131.458 4.04536C132.602 5.18113 133.174 6.80529 133.174 8.91784C133.174 9.91732 133.029 10.8032 132.737 11.5756C132.467 12.3252 132.075 12.9498 131.559 13.4496C131.042 13.9266 130.425 14.256 129.707 14.4377C130.246 14.574 130.762 14.7898 131.256 15.0851C131.772 15.3804 132.232 15.7779 132.636 16.2777C133.062 16.7774 133.388 17.3907 133.612 18.1176C133.859 18.8218 133.982 19.6396 133.982 20.5709C133.982 22.2746 133.691 23.6375 133.107 24.6597C132.546 25.6819 131.704 26.4202 130.582 26.8745C129.483 27.3061 128.125 27.5219 126.509 27.5219H116.275ZM121.257 22.9901H126.374C126.958 22.9901 127.463 22.8765 127.889 22.6494C128.316 22.4222 128.641 22.0701 128.865 21.5931C129.112 21.1161 129.236 20.48 129.236 19.685C129.236 19.0263 129.112 18.4697 128.865 18.0154C128.619 17.5611 128.282 17.209 127.856 16.9591C127.429 16.7093 126.935 16.5843 126.374 16.5843H121.257V22.9901ZM121.257 12.7H126.105C126.823 12.7 127.384 12.4387 127.788 11.9163C128.215 11.3711 128.428 10.6669 128.428 9.80374C128.45 8.69068 128.226 7.91836 127.755 7.48676C127.283 7.05516 126.711 6.83937 126.038 6.83937H121.257V12.7Z" fill="#15181B"/>
<path d="M146.773 27.6922C145.404 27.6922 144.125 27.5787 142.935 27.3515C141.746 27.1016 140.702 26.6814 139.805 26.0908C138.929 25.4775 138.245 24.637 137.751 23.5694C137.28 22.479 137.044 21.0934 137.044 19.4124V2.30762H142.026V19.3783C142.026 20.3097 142.206 21.0479 142.565 21.5931C142.947 22.1383 143.485 22.5358 144.181 22.7857C144.899 23.0355 145.763 23.1605 146.773 23.1605C147.76 23.1605 148.602 23.0355 149.298 22.7857C150.016 22.5358 150.554 22.1383 150.914 21.5931C151.295 21.0479 151.486 20.3097 151.486 19.3783V2.30762H156.502V19.4124C156.502 21.0934 156.255 22.479 155.761 23.5694C155.267 24.637 154.583 25.4775 153.708 26.0908C152.832 26.6814 151.8 27.1016 150.611 27.3515C149.444 27.5787 148.164 27.6922 146.773 27.6922Z" fill="#15181B"/>
<path d="M160.459 27.5219V2.30762H165.441V27.5219H160.459Z" fill="#15181B"/>
<path d="M175.653 27.5219C174.374 27.5219 173.286 27.3288 172.388 26.9426C171.513 26.5337 170.851 25.8977 170.402 25.0345C169.976 24.1486 169.762 22.9901 169.762 21.559V2.30762H174.745V20.7413C174.745 21.2864 174.834 21.7294 175.014 22.0701C175.216 22.4109 175.485 22.6494 175.822 22.7857C176.158 22.8993 176.54 22.956 176.966 22.956H184.844V27.5219H175.653Z" fill="#15181B"/>
<path d="M187.778 27.5219V2.30762H198.314C199.998 2.30762 201.4 2.61428 202.522 3.22759C203.644 3.8182 204.531 4.68139 205.182 5.81717C205.855 6.93023 206.326 8.25909 206.596 9.80374C206.865 11.3484 207 13.0521 207 14.9147C207 17.7542 206.674 20.1052 206.023 21.9679C205.395 23.8306 204.441 25.2276 203.162 26.1589C201.883 27.0676 200.267 27.5219 198.314 27.5219H187.778ZM192.76 22.9901H197.809C198.842 22.9901 199.661 22.6948 200.267 22.1042C200.873 21.4909 201.31 20.5823 201.58 19.3783C201.871 18.1744 202.017 16.6866 202.017 14.9147C202.017 13.2792 201.928 11.939 201.748 10.8941C201.568 9.82646 201.299 8.99734 200.94 8.40674C200.603 7.81613 200.166 7.40726 199.627 7.1801C199.111 6.95294 198.505 6.83937 197.809 6.83937H192.76V22.9901Z" fill="#15181B"/>
</svg>
