<svg width="207" height="30" viewBox="0 0 207 30" fill="none" xmlns="http://www.w3.org/2000/svg">
<path d="M47.5332 -0.000244141L67.6978 29.9998H74.3665L54.2041 -0.000244141H47.5332Z" fill="#F44E19"/>
<path d="M33.7334 -0.000244141L53.898 29.9998H60.5667L40.4021 -0.000244141H33.7334Z" fill="#F44E19"/>
<path d="M19.9336 -0.000244141L40.0982 29.9998H46.7669L26.6045 -0.000244141H19.9336Z" fill="#F44E19"/>
<path d="M26.8333 0L6.66873 30H0L20.1646 0H26.8333Z" fill="#F44E19"/>
<path d="M23.0004 19.2302H18.4004V23.8456H23.0004V19.2302Z" fill="#F44E19"/>
<path d="M23.0004 25.3848H18.4004V30.0002H23.0004V25.3848Z" fill="#F44E19"/>
<path d="M29.1342 19.2302H24.5342V23.8456H29.1342V19.2302Z" fill="#F44E19"/>
<path d="M29.1342 25.3848H24.5342V30.0002H29.1342V25.3848Z" fill="#F44E19"/>
<path d="M85.8662 27.5221V2.30786H96.1673C97.1548 2.30786 98.0749 2.4328 98.9277 2.68267C99.7805 2.90982 100.532 3.3187 101.183 3.90931C101.834 4.49991 102.339 5.31767 102.698 6.36258C103.08 7.4075 103.27 8.74772 103.27 10.3832C103.27 11.5417 103.158 12.5299 102.934 13.3476C102.709 14.1654 102.406 14.8355 102.025 15.3579C101.666 15.8804 101.25 16.3006 100.779 16.6186C100.308 16.9367 99.8254 17.1979 99.3317 17.4023L103.977 27.5221H98.894L94.8881 18.186C94.6188 18.186 94.3046 18.186 93.9455 18.186C93.6088 18.1633 93.261 18.1519 92.9019 18.1519C92.5428 18.1519 92.1838 18.1519 91.8247 18.1519C91.4656 18.1519 91.1402 18.1406 90.8484 18.1179V27.5221H85.8662ZM90.8484 14.1313H95.292C95.7409 14.1313 96.1448 14.0745 96.5039 13.9609C96.863 13.8474 97.1772 13.6543 97.4465 13.3817C97.7158 13.0864 97.9178 12.7002 98.0524 12.2232C98.2095 11.7462 98.2881 11.1328 98.2881 10.3832C98.2881 9.67905 98.2095 9.09981 98.0524 8.6455C97.9178 8.16847 97.7158 7.80502 97.4465 7.55515C97.1772 7.28256 96.863 7.10084 96.5039 7.00998C96.1448 6.8964 95.7409 6.83961 95.292 6.83961H90.8484V14.1313Z" fill="white"/>
<path d="M106.972 27.5221V2.30786H111.954V27.5221H106.972Z" fill="white"/>
<path d="M116.275 27.5221V2.30786H126.071C128.54 2.30786 130.335 2.88711 131.458 4.0456C132.602 5.18138 133.174 6.80554 133.174 8.91808C133.174 9.91757 133.029 10.8035 132.737 11.5758C132.467 12.3254 132.075 12.9501 131.559 13.4498C131.042 13.9269 130.425 14.2562 129.707 14.438C130.246 14.5743 130.762 14.79 131.256 15.0854C131.772 15.3807 132.232 15.7782 132.636 16.2779C133.062 16.7777 133.388 17.391 133.612 18.1179C133.859 18.8221 133.982 19.6398 133.982 20.5712C133.982 22.2748 133.691 23.6378 133.107 24.66C132.546 25.6821 131.704 26.4204 130.582 26.8747C129.483 27.3063 128.125 27.5221 126.509 27.5221H116.275ZM121.257 22.9904H126.374C126.958 22.9904 127.463 22.8768 127.889 22.6496C128.316 22.4225 128.641 22.0704 128.865 21.5934C129.112 21.1163 129.236 20.4803 129.236 19.6852C129.236 19.0265 129.112 18.47 128.865 18.0157C128.619 17.5613 128.282 17.2093 127.856 16.9594C127.429 16.7095 126.935 16.5846 126.374 16.5846H121.257V22.9904ZM121.257 12.7002H126.105C126.823 12.7002 127.384 12.439 127.788 11.9165C128.215 11.3714 128.428 10.6672 128.428 9.80399C128.45 8.69093 128.226 7.9186 127.755 7.487C127.283 7.05541 126.711 6.83961 126.038 6.83961H121.257V12.7002Z" fill="white"/>
<path d="M146.773 27.6925C145.404 27.6925 144.125 27.5789 142.935 27.3517C141.746 27.1019 140.702 26.6816 139.805 26.091C138.929 25.4777 138.245 24.6372 137.751 23.5696C137.28 22.4793 137.044 21.0936 137.044 19.4127V2.30786H142.026V19.3786C142.026 20.3099 142.206 21.0482 142.565 21.5934C142.947 22.1385 143.485 22.536 144.181 22.7859C144.899 23.0358 145.763 23.1607 146.773 23.1607C147.76 23.1607 148.602 23.0358 149.298 22.7859C150.016 22.536 150.554 22.1385 150.914 21.5934C151.295 21.0482 151.486 20.3099 151.486 19.3786V2.30786H156.502V19.4127C156.502 21.0936 156.255 22.4793 155.761 23.5696C155.267 24.6372 154.583 25.4777 153.708 26.091C152.832 26.6816 151.8 27.1019 150.611 27.3517C149.444 27.5789 148.164 27.6925 146.773 27.6925Z" fill="white"/>
<path d="M160.459 27.5221V2.30786H165.441V27.5221H160.459Z" fill="white"/>
<path d="M175.653 27.5221C174.374 27.5221 173.286 27.329 172.388 26.9429C171.513 26.534 170.851 25.8979 170.402 25.0348C169.976 24.1489 169.762 22.9904 169.762 21.5593V2.30786H174.745V20.7415C174.745 21.2867 174.834 21.7296 175.014 22.0704C175.216 22.4111 175.485 22.6496 175.822 22.7859C176.158 22.8995 176.54 22.9563 176.966 22.9563H184.844V27.5221H175.653Z" fill="white"/>
<path d="M187.778 27.5221V2.30786H198.314C199.998 2.30786 201.4 2.61452 202.522 3.22784C203.644 3.81844 204.531 4.68163 205.182 5.81741C205.855 6.93047 206.326 8.25933 206.596 9.80399C206.865 11.3486 207 13.0523 207 14.915C207 17.7544 206.674 20.1055 206.023 21.9682C205.395 23.8308 204.441 25.2278 203.162 26.1592C201.883 27.0678 200.267 27.5221 198.314 27.5221H187.778ZM192.76 22.9904H197.809C198.842 22.9904 199.661 22.6951 200.267 22.1045C200.873 21.4911 201.31 20.5825 201.58 19.3786C201.871 18.1747 202.017 16.6868 202.017 14.915C202.017 13.2795 201.928 11.9392 201.748 10.8943C201.568 9.8267 201.299 8.99759 200.94 8.40698C200.603 7.81638 200.166 7.4075 199.627 7.18034C199.111 6.95319 198.505 6.83961 197.809 6.83961H192.76V22.9904Z" fill="white"/>
</svg>
