<svg width="18" height="18" viewBox="0 0 18 18" fill="none" xmlns="http://www.w3.org/2000/svg">
<g opacity="0.7">
<path d="M13 1H5C2.79086 1 1 2.79086 1 5V13C1 15.2091 2.79086 17 5 17H13C15.2091 17 17 15.2091 17 13V5C17 2.79086 15.2091 1 13 1Z" stroke="white" stroke-width="1.5" stroke-linecap="round" stroke-linejoin="round"/>
<path d="M12.1994 8.49575C12.2981 9.16155 12.1844 9.84153 11.8744 10.439C11.5644 11.0364 11.0739 11.5209 10.4727 11.8235C9.87146 12.1261 9.19013 12.2314 8.5256 12.1245C7.86108 12.0176 7.24718 11.7038 6.77125 11.2279C6.29531 10.7519 5.98156 10.1381 5.87463 9.47352C5.7677 8.80899 5.87303 8.12767 6.17564 7.52645C6.47825 6.92524 6.96272 6.43475 7.56016 6.12475C8.1576 5.81475 8.83758 5.70102 9.50338 5.79975C10.1825 5.90046 10.8113 6.21692 11.2967 6.7024C11.7822 7.18787 12.0987 7.81661 12.1994 8.49575Z" stroke="white" stroke-width="1.5" stroke-linecap="round" stroke-linejoin="round"/>
<path d="M13.4004 4.6001H13.4084" stroke="white" stroke-width="1.5" stroke-linecap="round" stroke-linejoin="round"/>
</g>
</svg>
