<svg width="18" height="18" viewBox="0 0 18 18" fill="none" xmlns="http://www.w3.org/2000/svg">
<g opacity="0.7">
<path d="M12.2004 6.05273C13.4734 6.05273 14.6943 6.58506 15.5945 7.53262C16.4947 8.48017 17.0004 9.76532 17.0004 11.1054V17.0001H13.8004V11.1054C13.8004 10.6587 13.6318 10.2303 13.3318 9.91445C13.0317 9.5986 12.6247 9.42116 12.2004 9.42116C11.776 9.42116 11.3691 9.5986 11.069 9.91445C10.769 10.2303 10.6004 10.6587 10.6004 11.1054V17.0001H7.40039V11.1054C7.40039 9.76532 7.9061 8.48017 8.80628 7.53262C9.70645 6.58506 10.9274 6.05273 12.2004 6.05273Z" stroke="white" stroke-width="1.5" stroke-linecap="round" stroke-linejoin="round"/>
<path d="M4.2 6.89502H1V17.0003H4.2V6.89502Z" stroke="white" stroke-width="1.5" stroke-linecap="round" stroke-linejoin="round"/>
<path d="M2.6 4.36842C3.48366 4.36842 4.2 3.61437 4.2 2.68421C4.2 1.75405 3.48366 1 2.6 1C1.71634 1 1 1.75405 1 2.68421C1 3.61437 1.71634 4.36842 2.6 4.36842Z" stroke="white" stroke-width="1.5" stroke-linecap="round" stroke-linejoin="round"/>
</g>
</svg>
