<svg width="19" height="20" viewBox="0 0 19 20" fill="none" xmlns="http://www.w3.org/2000/svg">
<path d="M14.4998 6.4C15.991 6.4 17.1998 5.19117 17.1998 3.7C17.1998 2.20883 15.991 1 14.4998 1C13.0086 1 11.7998 2.20883 11.7998 3.7C11.7998 5.19117 13.0086 6.4 14.4998 6.4Z" stroke="white" stroke-width="2" stroke-linecap="round" stroke-linejoin="round"/>
<path d="M3.7 12.7C5.19117 12.7 6.4 11.4912 6.4 10C6.4 8.50888 5.19117 7.30005 3.7 7.30005C2.20883 7.30005 1 8.50888 1 10C1 11.4912 2.20883 12.7 3.7 12.7Z" stroke="white" stroke-width="2" stroke-linecap="round" stroke-linejoin="round"/>
<path d="M14.4998 19C15.991 19 17.1998 17.7911 17.1998 16.3C17.1998 14.8088 15.991 13.6 14.4998 13.6C13.0086 13.6 11.7998 14.8088 11.7998 16.3C11.7998 17.7911 13.0086 19 14.4998 19Z" stroke="white" stroke-width="2" stroke-linecap="round" stroke-linejoin="round"/>
<path d="M6.03125 11.359L12.1782 14.941" stroke="white" stroke-width="2" stroke-linecap="round" stroke-linejoin="round"/>
<path d="M12.1692 5.05884L6.03125 8.64084" stroke="white" stroke-width="2" stroke-linecap="round" stroke-linejoin="round"/>
</svg>
