<svg width="16" height="16" viewBox="0 0 16 16" fill="none" xmlns="http://www.w3.org/2000/svg">
<path d="M15.9959 15.9999L15.9999 15.9993V10.1313C15.9999 7.26059 15.3819 5.04926 12.0259 5.04926C10.4125 5.04926 9.32985 5.93459 8.88785 6.77392H8.84118V5.31726H5.65918V15.9993H8.97252V10.7099C8.97252 9.31726 9.23652 7.97059 10.9612 7.97059C12.6605 7.97059 12.6859 9.55993 12.6859 10.7993V15.9999H15.9959Z" fill="#15181B"/>
<path d="M0.26416 5.31805H3.5815V16.0001H0.26416V5.31805Z" fill="#15181B"/>
<path d="M1.92134 0C0.860668 0 0 0.860668 0 1.92134C0 2.982 0.860668 3.86067 1.92134 3.86067C2.982 3.86067 3.84267 2.982 3.84267 1.92134C3.842 0.860668 2.98134 0 1.92134 0Z" fill="#15181B"/>
</svg>
