<svg width="50" height="56" viewBox="0 0 50 56" fill="none" xmlns="http://www.w3.org/2000/svg">
<path d="M34.4973 36.9999C40.551 27.6491 39.79 28.8157 39.9644 28.5719C42.1684 25.5118 43.3333 21.9102 43.3333 18.1562C43.3333 8.20094 35.1266 0 25 0C14.9064 0 6.66667 8.18475 6.66667 18.1562C6.66667 21.9078 7.856 25.6037 10.1322 28.705L15.5024 37C9.76078 37.8686 0 40.4569 0 46.1562C0 48.2338 1.37756 51.1946 7.94022 53.5018C12.5227 55.1128 18.5812 56 25 56C37.0028 56 50 52.6671 50 46.1562C50 40.456 40.2507 37.8703 34.4973 36.9999ZM12.9166 26.9002C12.8982 26.872 12.8791 26.8445 12.8591 26.8173C10.965 24.2523 10 21.2123 10 18.1562C10 9.95116 16.7118 3.28125 25 3.28125C33.271 3.28125 40 9.95411 40 18.1562C40 21.2172 39.0532 24.154 37.2616 26.6515C37.101 26.86 37.9387 25.579 25 45.5644L12.9166 26.9002ZM25 52.7188C11.8896 52.7188 3.33333 48.9253 3.33333 46.1562C3.33333 44.2951 7.72978 41.2349 17.472 40.0421L23.5944 49.499C23.9004 49.9717 24.4304 50.2578 24.9999 50.2578C25.5693 50.2578 26.0994 49.9716 26.4053 49.499L32.5277 40.0421C42.2701 41.2349 46.6667 44.2951 46.6667 46.1562C46.6667 48.9018 38.1874 52.7188 25 52.7188Z" fill="#F44E19"/>
<path d="M25.0003 9.95312C20.4053 9.95312 16.667 13.633 16.667 18.1562C16.667 22.6795 20.4053 26.3594 25.0003 26.3594C29.5953 26.3594 33.3337 22.6795 33.3337 18.1562C33.3337 13.633 29.5953 9.95312 25.0003 9.95312ZM25.0003 23.0781C22.2433 23.0781 20.0003 20.8702 20.0003 18.1562C20.0003 15.4423 22.2433 13.2344 25.0003 13.2344C27.7573 13.2344 30.0003 15.4423 30.0003 18.1562C30.0003 20.8702 27.7573 23.0781 25.0003 23.0781Z" fill="#F44E19"/>
</svg>
