<svg width="50" height="36" viewBox="0 0 50 36" fill="none" xmlns="http://www.w3.org/2000/svg">
<path d="M45.6055 0H4.39453C1.9665 0 0 1.97871 0 4.39453V30.7617C0 33.1919 1.98096 35.1562 4.39453 35.1562H45.6055C48.0132 35.1562 50 33.2002 50 30.7617V4.39453C50 1.98301 48.0413 0 45.6055 0ZM44.99 2.92969C44.0922 3.82275 28.6409 19.1927 28.1074 19.7233C27.2773 20.5534 26.1738 21.0105 25 21.0105C23.8262 21.0105 22.7227 20.5533 21.8898 19.7206C21.5311 19.3637 6.25029 4.16348 5.00996 2.92969H44.99ZM2.92969 30.1654V4.99268L15.5896 17.5859L2.92969 30.1654ZM5.01182 32.2266L17.6668 19.6521L19.821 21.7949C21.2044 23.1783 23.0437 23.9401 25 23.9401C26.9563 23.9401 28.7956 23.1783 30.1763 21.7977L32.3332 19.6521L44.9882 32.2266H5.01182ZM47.0703 30.1654L34.4104 17.5859L47.0703 4.99268V30.1654Z" fill="#F44E19"/>
</svg>
