<svg width="50" height="50" viewBox="0 0 50 50" fill="none" xmlns="http://www.w3.org/2000/svg">
<path d="M39.5369 30.9732C38.5117 29.9074 37.2753 29.3375 35.9648 29.3375C34.6649 29.3375 33.4179 29.8968 32.3505 30.9627L29.0109 34.2868C28.7362 34.1391 28.4614 34.0019 28.1972 33.8647C27.8167 33.6747 27.4574 33.4953 27.1509 33.3054C24.0227 31.3215 21.1799 28.736 18.4533 25.3908C17.1323 23.7234 16.2445 22.3199 15.5999 20.8952C16.4665 20.1038 17.2697 19.2807 18.0517 18.4892C18.3476 18.1937 18.6435 17.8877 18.9394 17.5922C21.1588 15.3761 21.1588 12.5057 18.9394 10.2896L16.0543 7.40871C15.7267 7.08157 15.3885 6.74388 15.0715 6.40619C14.4374 5.75191 13.7716 5.07653 13.0846 4.44336C12.0595 3.43028 10.8336 2.89209 9.5443 2.89209C8.25498 2.89209 7.00793 3.43028 5.95111 4.44336C5.94054 4.45391 5.94054 4.45391 5.92998 4.46446L2.33679 8.08409C0.984056 9.43486 0.212578 11.0811 0.0434866 12.9912C-0.21015 16.0726 0.698715 18.943 1.39622 20.8214C3.10827 25.433 5.66577 29.7069 9.48089 34.2868C14.1098 39.8059 19.6792 44.1643 26.0413 47.2351C28.472 48.3854 31.7164 49.7467 35.3413 49.9789C35.5632 49.9894 35.7957 50 36.0071 50C38.4483 50 40.4986 49.1241 42.1049 47.3829C42.1155 47.3618 42.1366 47.3512 42.1472 47.3301C42.6968 46.6653 43.3308 46.0638 43.9966 45.4201C44.4511 44.9874 44.9161 44.5336 45.3705 44.0587C46.4168 42.9718 46.9663 41.7055 46.9663 40.4075C46.9663 39.0989 46.4062 37.8431 45.3388 36.7878L39.5369 30.9732ZM43.3203 42.0854C43.3097 42.0854 43.3097 42.0959 43.3203 42.0854C42.9081 42.5286 42.4854 42.9296 42.031 43.3728C41.344 44.0271 40.6465 44.713 39.9913 45.4834C38.9239 46.6231 37.6663 47.1613 36.0176 47.1613C35.8591 47.1613 35.69 47.1613 35.5315 47.1507C32.3928 46.9502 29.4759 45.7261 27.2883 44.6814C21.3067 41.7899 16.0543 37.6848 11.6896 32.4823C8.08589 28.1451 5.67634 24.135 4.08054 19.8294C3.0977 17.2017 2.73838 15.1545 2.8969 13.2233C3.00258 11.9886 3.47815 10.965 4.35531 10.0891L7.95907 6.49061C8.47691 6.00518 9.02646 5.74136 9.56544 5.74136C10.2312 5.74136 10.7702 6.14237 11.1084 6.48006C11.119 6.49061 11.1295 6.50116 11.1401 6.51172C11.7848 7.11323 12.3977 7.73585 13.0424 8.40068C13.37 8.73837 13.7082 9.07606 14.0464 9.4243L16.9315 12.3052C18.0517 13.4238 18.0517 14.458 16.9315 15.5766C16.625 15.8826 16.3291 16.1887 16.0226 16.4842C15.1349 17.3917 14.2894 18.2359 13.37 19.0591C13.3489 19.0802 13.3277 19.0907 13.3171 19.1118C12.4083 20.0194 12.5774 20.9058 12.7676 21.5073C12.7782 21.539 12.7887 21.5706 12.7993 21.6023C13.5496 23.4174 14.6065 25.1269 16.2128 27.1636L16.2234 27.1742C19.1402 30.7622 22.2156 33.5587 25.608 35.7009C26.0413 35.9753 26.4851 36.1969 26.9079 36.4079C27.2883 36.5979 27.6476 36.7773 27.9541 36.9672C27.9964 36.9883 28.0387 37.02 28.0809 37.0411C28.4402 37.2205 28.7784 37.3049 29.1272 37.3049C30.0043 37.3049 30.5539 36.7562 30.7335 36.5768L34.3479 32.9677C34.7072 32.6089 35.2779 32.1762 35.9437 32.1762C36.5989 32.1762 37.1379 32.5878 37.4655 32.9466C37.4761 32.9571 37.4761 32.9571 37.4866 32.9677L43.3097 38.7823C44.3982 39.8587 44.3982 40.9668 43.3203 42.0854Z" fill="#F44E19"/>
<path d="M27.024 11.8938C29.7928 12.3581 32.3081 13.6666 34.316 15.6717C36.324 17.6767 37.6239 20.1883 38.0994 22.9531C38.2157 23.6496 38.8181 24.1351 39.505 24.1351C39.5896 24.1351 39.6635 24.1245 39.7481 24.114C40.5301 23.9873 41.048 23.2486 40.9212 22.4677C40.3505 19.1225 38.7652 16.0727 36.3451 13.6561C33.925 11.2395 30.8708 9.65655 27.5207 9.0867C26.7386 8.96007 26.0094 9.47716 25.872 10.2475C25.7347 11.0179 26.2419 11.7671 27.024 11.8938Z" fill="#F44E19"/>
<path d="M49.9785 22.0561C49.0379 16.5475 46.4381 11.5349 42.4433 7.5459C38.4485 3.55692 33.4286 0.960923 27.912 0.0217193C27.1406 -0.115468 26.4114 0.412175 26.274 1.18253C26.1472 1.96344 26.665 2.69159 27.447 2.82878C32.3718 3.66245 36.8633 5.99463 40.4354 9.55094C44.0074 13.1178 46.3324 17.6028 47.1673 22.5204C47.2836 23.2169 47.886 23.7023 48.5729 23.7023C48.6574 23.7023 48.7314 23.6918 48.816 23.6812C49.5874 23.5651 50.1158 22.8264 49.9785 22.0561Z" fill="#F44E19"/>
</svg>
