<svg width="50" height="50" viewBox="0 0 50 50" fill="none" xmlns="http://www.w3.org/2000/svg">
<path d="M25 50C38.7833 50 50 38.7833 50 25C50 11.2167 38.7834 0 25 0C11.2166 0 0 11.2167 0 25C0 38.7833 11.2167 50 25 50ZM25 3.33328C36.95 3.33328 46.6667 13.0499 46.6667 25C46.6667 36.9501 36.9501 46.6667 25 46.6667C13.0499 46.6667 3.33328 36.9501 3.33328 25C3.33328 13.0499 13.05 3.33328 25 3.33328Z" fill="#F44E19"/>
<path d="M32.2913 32.9668C32.5997 33.2167 32.9663 33.3335 33.333 33.3335C33.8246 33.3335 34.308 33.1168 34.6329 32.7085C35.2079 31.9918 35.0912 30.9418 34.3746 30.3668L26.6663 24.2001V11.6668C26.6663 10.7501 25.9163 10.0001 24.9996 10.0001C24.083 10.0001 23.333 10.7501 23.333 11.6668V25.0002C23.333 25.5085 23.5664 25.9835 23.958 26.3001L32.2913 32.9668Z" fill="#F44E19"/>
</svg>
