<svg width="53" height="50" viewBox="0 0 53 50" fill="none" xmlns="http://www.w3.org/2000/svg">
<path fill-rule="evenodd" clip-rule="evenodd" d="M51.9574 14.7602L49.8422 13.9086C49.5344 12.7272 49.0855 11.5945 48.5033 10.53L49.4239 8.36181C49.566 8.02699 49.4965 7.63505 49.2487 7.37597L46.3338 4.327C46.0861 4.06791 45.7117 3.99506 45.3914 4.14376L43.318 5.10701C42.3005 4.49817 41.2177 4.02872 40.0891 3.70675L39.2748 1.4936C39.149 1.15159 38.8349 0.926051 38.4845 0.926051H34.3623C34.012 0.926051 33.6979 1.1517 33.5721 1.4936L32.7576 3.70686C31.629 4.02872 30.5463 4.49828 29.5287 5.10712L27.4553 4.14387C27.135 3.99506 26.7606 4.06792 26.5128 4.32711L23.5979 7.37619C23.3502 7.63527 23.2807 8.0271 23.4228 8.36203L24.3437 10.5306C23.7615 11.5949 23.3128 12.7273 23.0049 13.9084L20.8894 14.7602C20.5625 14.8919 20.3468 15.2204 20.3468 15.5869V19.8988C20.3468 20.2653 20.5625 20.5938 20.8894 20.7254L23.0045 21.5771C23.3124 22.7583 23.7614 23.8913 24.3435 24.9555L23.4228 27.1236C23.2807 27.4586 23.3502 27.8504 23.5979 28.1095L26.5128 31.1586C26.7606 31.4176 27.1351 31.4905 27.4553 31.3418L29.5288 30.3784C30.5464 30.9874 31.6291 31.4568 32.7577 31.7787L33.5721 33.9918C33.6978 34.3339 34.012 34.5594 34.3623 34.5594H38.4845C38.8349 34.5594 39.1489 34.3337 39.2748 33.9918L40.0889 31.7792C41.2182 31.4573 42.3011 30.9877 43.3189 30.3788L45.3915 31.3417C45.7115 31.4905 46.0861 31.4176 46.334 31.1586L49.2488 28.1095C49.4965 27.8504 49.566 27.4586 49.4239 27.1236L48.503 24.9547C49.0851 23.8903 49.5339 22.7578 49.8416 21.5773L51.9574 20.7254C52.2843 20.5939 52.5 20.2653 52.5 19.8988V15.5869C52.5 15.2204 52.2843 14.8918 51.9574 14.7602ZM50.8065 19.2906L48.8251 20.0884C48.5645 20.1932 48.3702 20.4257 48.3056 20.7099C48.0064 22.025 47.5101 23.2773 46.8304 24.4318C46.684 24.6806 46.6644 24.9888 46.7776 25.2557L47.6399 27.2869L45.5473 29.476L43.6062 28.5742C43.3512 28.4556 43.0565 28.4762 42.8185 28.6294C41.7148 29.3403 40.5175 29.8596 39.2595 30.1727C38.9879 30.2404 38.7655 30.4436 38.6653 30.7162L37.9029 32.788H34.9435L34.1809 30.7156C34.0807 30.443 33.8583 30.2397 33.5867 30.1721C32.3296 29.8592 31.1324 29.34 30.0286 28.6291C29.7907 28.4758 29.496 28.4554 29.241 28.5737L27.299 29.4759L25.2064 27.2868L26.0686 25.2565C26.1818 24.9894 26.1621 24.6812 26.0157 24.4324C25.3361 23.2783 24.8398 22.0257 24.5403 20.7095C24.4757 20.4254 24.2812 20.1929 24.0208 20.088L22.0402 19.2905V16.1948L24.0212 15.3971C24.2818 15.2921 24.4761 15.0596 24.5407 14.7755C24.84 13.46 25.3363 12.2077 26.016 11.0535C26.1625 10.8047 26.1822 10.4965 26.0689 10.2294L25.2066 8.1985L27.2993 6.00948L29.2411 6.9115C29.4962 7.02986 29.7908 7.00938 30.0287 6.85614C31.1326 6.14533 32.3296 5.62617 33.5869 5.31317C33.8584 5.24552 34.0808 5.04224 34.181 4.76965L34.9437 2.69722H37.9031L38.6657 4.76965C38.766 5.04224 38.9883 5.24552 39.2598 5.31317C40.5171 5.62617 41.7142 6.14533 42.818 6.85614C43.0559 7.00938 43.3506 7.02986 43.6056 6.9115L45.5475 6.00937L47.6402 8.19839L46.778 10.2289C46.6648 10.4958 46.6845 10.8041 46.831 11.0528C47.5106 12.2071 48.0069 13.4596 48.3062 14.7756C48.3708 15.0597 48.5651 15.2924 48.8257 15.3972L50.8065 16.1949V19.2906ZM36.4233 8.6241C31.6164 8.6241 27.7058 12.7147 27.7058 17.7428C27.7058 22.7708 31.6164 26.8615 36.4233 26.8615C41.23 26.8615 45.1406 22.7708 45.1406 17.7428C45.1406 12.7147 41.23 8.6241 36.4233 8.6241ZM36.4233 25.09C32.5502 25.09 29.3994 21.794 29.3994 17.7428C29.3994 13.6916 32.5503 10.3956 36.4233 10.3956C40.2962 10.3956 43.447 13.6916 43.447 17.7428C43.447 21.794 40.2962 25.09 36.4233 25.09ZM2.52635 15.7384L1.99807 16.9827C1.85592 17.3175 1.92546 17.7095 2.17314 17.9685L4.04165 19.923C4.28944 20.1821 4.66382 20.255 4.98411 20.1063L6.17415 19.5534C6.76403 19.8927 7.38556 20.1623 8.03081 20.3585L8.49823 21.6287C8.62397 21.9706 8.93812 22.1962 9.28848 22.1962H11.931C12.2814 22.1962 12.5954 21.9706 12.7213 21.6287L13.1885 20.3591C13.8342 20.1626 14.4561 19.893 15.0459 19.5536L16.2353 20.1062C16.5552 20.255 16.93 20.1822 17.1778 19.923L19.0463 17.9684C19.294 17.7093 19.3635 17.3175 19.2214 16.9826L18.6929 15.7378C19.0172 15.1208 19.275 14.4706 19.4626 13.7955L20.677 13.3066C21.0038 13.1751 21.2195 12.8465 21.2195 12.48V9.7159C21.2195 9.34942 21.0038 9.02092 20.677 8.88927L19.463 8.40045C19.2754 7.72528 19.0175 7.07481 18.6931 6.45767L19.2214 5.21341C19.3635 4.8786 19.294 4.48665 19.0463 4.22757L17.1779 2.27328C16.9301 2.01419 16.5557 1.94145 16.2354 2.09004L15.0454 2.64286C14.4556 2.30361 13.834 2.0339 13.1887 1.83771L12.7214 0.567544C12.5957 0.225645 12.2815 0 11.9312 0H9.28858C8.93823 0 8.62418 0.225645 8.49833 0.567544L8.03091 1.83771C7.38578 2.03401 6.76403 2.30361 6.17425 2.64297L4.98422 2.09004C4.66393 1.94145 4.28955 2.01419 4.04176 2.27328L2.17314 4.2279C1.92546 4.48699 1.85592 4.87882 1.99807 5.21374L2.52656 6.45822C2.20214 7.07514 1.94441 7.7254 1.75663 8.40056L0.542571 8.88949C0.215716 9.02114 0 9.34975 0 9.71612V12.4802C0 12.8467 0.215716 13.1752 0.542571 13.3068L1.75642 13.7955C1.94419 14.4709 2.20204 15.1215 2.52635 15.7384ZM1.69355 10.3243L2.76863 9.89139C3.02923 9.78642 3.22356 9.55403 3.28813 9.26992C3.47252 8.45946 3.77841 7.68797 4.19704 6.97705C4.34353 6.72826 4.36332 6.41991 4.24996 6.15297L3.7818 5.05054L4.82809 3.95609L5.88222 4.4458C6.13731 4.56416 6.43189 4.54367 6.66983 4.39055C7.35 3.95244 8.08743 3.63268 8.86181 3.43992C9.13331 3.37227 9.35569 3.16899 9.45593 2.8964L9.86989 1.77161H11.3495L11.7634 2.8964C11.8636 3.16899 12.086 3.37227 12.3575 3.43992C13.132 3.63268 13.8694 3.95255 14.5495 4.39044C14.7874 4.54367 15.0821 4.56416 15.3371 4.4458L16.3912 3.95609L17.4375 5.05054L16.9696 6.15264C16.8563 6.41958 16.876 6.72782 17.0225 6.9766C17.4413 7.68808 17.7471 8.45968 17.9313 9.26992C17.9959 9.55403 18.1903 9.78664 18.4509 9.89161L19.5259 10.3244V11.8723L18.4506 12.3052C18.1901 12.41 17.9956 12.6425 17.9311 12.9266C17.7467 13.7368 17.4409 14.5082 17.0223 15.2194C16.8758 15.4682 16.8561 15.7764 16.9694 16.0434L17.4375 17.1459L16.3912 18.2405L15.3376 17.751C15.0825 17.6324 14.7879 17.653 14.5499 17.8063C13.8702 18.2443 13.1325 18.5642 12.3575 18.7571C12.0859 18.8247 11.8635 19.028 11.7633 19.3006L11.3495 20.4249H9.86989L9.45593 19.3001C9.35569 19.0277 9.13331 18.8243 8.86181 18.7566C8.08733 18.5639 7.34989 18.2441 6.66993 17.8061C6.4322 17.6529 6.13731 17.6324 5.88233 17.7507L4.82809 18.2405L3.7818 17.1459L4.24975 16.0438C4.363 15.7769 4.34332 15.4686 4.19683 15.2198C3.7782 14.5087 3.47241 13.7371 3.28792 12.9264C3.22335 12.6423 3.02902 12.4097 2.76842 12.3048L1.69355 11.8721V10.3243ZM10.6098 16.8045C13.6178 16.8045 16.0651 14.2447 16.0651 11.0982C16.0651 7.9517 13.6178 5.39167 10.6098 5.39167C7.6017 5.39167 5.15442 7.95159 5.15442 11.0982C5.15442 14.2447 7.6017 16.8045 10.6098 16.8045ZM10.6098 7.16328C12.684 7.16328 14.3716 8.92846 14.3716 11.0983C14.3716 13.268 12.684 15.0332 10.6098 15.0332C8.53548 15.0332 6.84797 13.268 6.84797 11.0983C6.84797 8.92846 8.53559 7.16328 10.6098 7.16328ZM42.2191 37.271L32.3777 40.0715C31.9445 40.1948 31.5209 40.2566 31.0982 40.2566C31.0974 40.2566 31.0964 40.2566 31.0956 40.2566C31.2946 40.0422 31.4734 39.7936 31.6288 39.5122C32.5166 37.9041 31.9964 35.8198 30.4448 34.7672C30.4127 34.7455 30.3794 34.726 30.3449 34.7091C28.0211 33.5641 25.8427 31.9758 24.0922 30.6996C23.4832 30.2555 22.908 29.8361 22.4127 29.5002C20.4014 28.1354 18.1797 28.5006 16.2716 29.0382L9.01889 31.0809L8.72082 29.8762C8.57772 29.2976 8.22662 28.8112 7.73211 28.5066C7.23759 28.2022 6.66094 28.117 6.10757 28.2666L3.35682 29.0112C2.2123 29.3211 1.52197 30.5473 1.81802 31.7446L5.51568 46.6912C5.65878 47.2698 6.00987 47.7562 6.50439 48.0608C6.83961 48.2673 7.21261 48.373 7.59059 48.373C7.77011 48.373 7.95068 48.3491 8.12882 48.3009L10.8796 47.5564C11.4327 47.4066 11.8976 47.0395 12.1888 46.5222C12.48 46.0049 12.5615 45.4015 12.4184 44.823L12.0532 43.3469L13.6324 42.9043L23.7296 49.0022C24.827 49.6651 25.9965 50 27.1838 50C27.8388 50 28.4993 49.898 29.1561 49.6931L47.1538 44.0726C48.8265 43.5503 49.8796 41.35 49.3632 39.4561C49.1128 38.5377 47.8573 35.6666 42.2191 37.271ZM10.7295 45.6233C10.6938 45.6866 10.6107 45.7992 10.4553 45.8414L7.70448 46.586C7.5491 46.6276 7.42441 46.5717 7.36365 46.5344C7.30311 46.4971 7.19546 46.4102 7.15524 46.2476L3.4577 31.3006C3.39652 31.0532 3.5447 30.79 3.78127 30.726L6.53202 29.9814C6.57107 29.9708 6.60823 29.9665 6.64294 29.9665C6.74614 29.9665 6.82754 30.0051 6.87295 30.033C6.93349 30.0703 7.04114 30.1572 7.08136 30.3196L10.7789 45.2667C10.819 45.4293 10.7651 45.5598 10.7295 45.6233ZM46.6693 42.3749L28.6716 47.9954C27.262 48.4354 25.8842 48.2578 24.5765 47.468L14.1754 41.1866C13.9809 41.0691 13.7495 41.0373 13.5329 41.0981L11.629 41.6318L9.44323 32.7959L16.712 30.7487C18.3375 30.2909 20.0418 30.0028 21.4911 30.9864C21.9627 31.3063 22.5008 31.6986 23.1239 32.1529C24.9127 33.4572 27.1355 35.0778 29.5665 36.2837C30.3413 36.8386 30.5983 37.8366 30.1623 38.6265C29.5888 39.6654 28.658 39.5549 27.966 39.2699C26.784 38.6501 25.6852 37.9616 24.5227 37.2326C23.9703 36.8863 23.3991 36.5281 22.8088 36.1716C22.4038 35.9269 21.8859 36.072 21.652 36.4958C21.4182 36.9195 21.5571 37.4611 21.962 37.7057C22.5404 38.0549 23.1055 38.4092 23.652 38.752C24.853 39.505 25.9874 40.2163 27.2388 40.8705C27.2433 40.8728 27.2479 40.8743 27.2525 40.8766C27.2583 40.8795 27.2638 40.883 27.2697 40.8859L28.2824 41.3627C29.812 42.078 31.2973 42.2148 32.8222 41.781L42.6638 38.9805C45.458 38.1855 47.3538 38.5448 47.7347 39.9421C47.9959 40.9007 47.4584 42.1286 46.6693 42.3749ZM6.56663 32.6167C6.50989 33.1233 6.07137 33.4859 5.58702 33.4265C5.10277 33.3672 4.75623 32.9084 4.81296 32.4018C4.86969 31.8953 5.30822 31.5327 5.79246 31.592C6.27682 31.6514 6.62336 32.1102 6.56663 32.6167Z" fill="#F44E19"/>
</svg>
