<svg width="50" height="50" viewBox="0 0 50 50" fill="none" xmlns="http://www.w3.org/2000/svg">
<path d="M36.6278 13.8604C36.4463 13.6787 36.1943 13.5742 35.9375 13.5742C35.6807 13.5742 35.4287 13.6787 35.2471 13.8604C35.0654 14.042 34.9609 14.293 34.9609 14.5508C34.9609 14.8076 35.0653 15.0596 35.2471 15.2412C35.4288 15.4228 35.6807 15.5273 35.9375 15.5273C36.1943 15.5273 36.4463 15.4228 36.6278 15.2412C36.8095 15.0596 36.9141 14.8076 36.9141 14.5508C36.9141 14.2939 36.8096 14.042 36.6278 13.8604Z" fill="#F44E19"/>
<path d="M14.6484 27.5391H6.83594C6.29668 27.5391 5.85938 27.9763 5.85938 28.5156V36.3281C5.85938 36.8675 6.29668 37.3047 6.83594 37.3047H14.6484C15.1877 37.3047 15.625 36.8675 15.625 36.3281V28.5156C15.625 27.9763 15.1878 27.5391 14.6484 27.5391ZM13.6719 35.3516H7.8125V29.4922H13.6719V35.3516Z" fill="#F44E19"/>
<path d="M49.3971 20.4843C49.0322 20.333 48.612 20.4168 48.3329 20.6959L38.3819 30.6469C38.3818 30.6471 38.3816 30.6472 38.3814 30.6474C38.3812 30.6476 38.3811 30.6477 38.381 30.6479L26.781 42.2479C26.7808 42.248 26.7807 42.2481 26.7805 42.2483C26.7803 42.2485 26.7802 42.2486 26.7801 42.2488L20.6962 48.3327C20.417 48.612 20.3334 49.0321 20.4845 49.397C20.6356 49.7619 20.9917 49.9998 21.3867 49.9998H49.0234C49.5626 49.9998 49.9999 49.5626 49.9999 49.0232V21.3866C49.9999 20.9916 49.762 20.6355 49.3971 20.4843ZM48.0468 48.0467H23.7444L27.4711 44.32L28.4033 45.2522C28.594 45.443 28.8439 45.5383 29.0938 45.5383C29.3437 45.5383 29.5936 45.443 29.7843 45.2522C30.1657 44.8709 30.1657 44.2525 29.7843 43.8711L28.8521 42.9389L31.3381 40.4529L32.2702 41.3851C32.4609 41.5758 32.7108 41.6711 32.9607 41.6711C33.2106 41.6711 33.4605 41.5757 33.6512 41.3851C34.0326 41.0037 34.0326 40.3854 33.6512 40.004L32.719 39.0718L35.2049 36.5858L36.1372 37.5181C36.3279 37.7088 36.5778 37.8041 36.8277 37.8041C37.0776 37.8041 37.3275 37.7088 37.5182 37.5181C37.8996 37.1367 37.8996 36.5184 37.5182 36.1369L36.586 35.2047L39.0718 32.7189L40.0041 33.6511C40.1948 33.8418 40.4447 33.9371 40.6946 33.9371C40.9445 33.9371 41.1944 33.8418 41.3851 33.6511C41.7665 33.2697 41.7665 32.6514 41.3851 32.2699L40.4529 31.3377L42.9388 28.8518L43.8709 29.7839C44.0617 29.9746 44.3116 30.0699 44.5615 30.0699C44.8114 30.0699 45.0613 29.9745 45.252 29.7839C45.6333 29.4026 45.6333 28.7842 45.252 28.4028L44.3198 27.4706L48.0468 23.7442V48.0467Z" fill="#F44E19"/>
<path d="M44.5151 32.2724C44.1501 32.1211 43.73 32.2048 43.4508 32.484L32.4851 43.4498C32.2059 43.7291 32.1222 44.1492 32.2734 44.5141C32.4246 44.879 32.7806 45.1169 33.1756 45.1169H44.1413C44.6806 45.1169 45.1179 44.6797 45.1179 44.1404V33.1747C45.1179 32.7797 44.88 32.4236 44.5151 32.2724ZM43.1648 43.1638H35.5333L43.1648 35.5323V43.1638Z" fill="#F44E19"/>
<path d="M45.2206 14.5762C44.9518 14.3075 44.5516 14.219 44.1943 14.3498L37.5262 16.7917C37.3929 16.8405 37.2719 16.9177 37.1714 17.0181L35.2965 18.893L23.0538 6.65016C22.8706 6.46706 22.6222 6.36413 22.3632 6.36413C22.1043 6.36413 21.8558 6.46706 21.6727 6.65016L6.93611 21.3868H3.33426L22.3632 2.35769L32.8055 12.8C33.187 13.1813 33.8051 13.1813 34.1867 12.8C34.568 12.4186 34.568 11.8003 34.1867 11.4188L23.0539 0.28601C22.6724 -0.0953368 22.0543 -0.0953368 21.6727 0.28601L0.28602 21.6727C0.00682144 21.952 -0.0767722 22.372 0.0743018 22.737C0.225474 23.102 0.581528 23.3399 0.976547 23.3399H1.95311V49.0234C1.95311 49.5628 2.39041 50 2.92967 50H18.4556C18.9949 50 19.4322 49.5628 19.4322 49.0234C19.4322 48.4841 18.9949 48.0469 18.4556 48.0469H3.90623V23.3399H7.3406C7.59959 23.3399 7.84792 23.237 8.03113 23.0539L22.3632 8.72174L33.9154 20.274L19.4336 34.7559V25.9766H26.2695C26.8087 25.9766 27.246 25.5394 27.246 25C27.246 24.4607 26.8087 24.0235 26.2695 24.0235H18.457C17.9177 24.0235 17.4804 24.4607 17.4804 25V36.3281C17.4804 36.4421 17.5009 36.5509 17.5368 36.6526L16.6619 37.5275C15.116 39.0734 15.116 41.5888 16.6619 43.1347C17.4349 43.9077 18.4501 44.2942 19.4655 44.2942C20.4807 44.2942 21.4962 43.9076 22.2691 43.1348L30.5046 34.8992C30.886 34.5179 30.886 33.8995 30.5046 33.5182C30.1233 33.1368 29.5051 33.1368 29.1235 33.5182L22.884 39.7576L20.039 36.9126L37.8815 19.0702L40.7265 21.9152L33.9086 28.7331C33.5273 29.1145 33.5273 29.7328 33.9086 30.1142C34.2901 30.4955 34.9082 30.4955 35.2898 30.1142L42.7786 22.6253C42.8789 22.5249 42.9563 22.4039 43.005 22.2706L45.447 15.6026C45.5778 15.2456 45.4895 14.8451 45.2206 14.5762ZM21.5031 41.1386L20.888 41.7536C20.5081 42.1336 20.003 42.3429 19.4656 42.3429C18.9282 42.3429 18.423 42.1336 18.0431 41.7536C17.663 41.3736 17.4539 40.8685 17.4539 40.3312C17.4539 39.7939 17.663 39.2886 18.043 38.9086L18.6581 38.2936L21.5031 41.1386ZM41.7075 20.1338L39.6628 18.0891L42.8892 16.9076L41.7075 20.1338Z" fill="#F44E19"/>
<path d="M32.8796 31.1426C32.6981 30.9609 32.4461 30.8564 32.1893 30.8564C31.9324 30.8564 31.6805 30.9609 31.4988 31.1426C31.3172 31.3252 31.2127 31.5762 31.2127 31.833C31.2127 32.0908 31.3171 32.3418 31.4988 32.5244C31.6805 32.7061 31.9315 32.8096 32.1893 32.8096C32.4461 32.8096 32.6981 32.7061 32.8796 32.5244C33.0612 32.3418 33.1658 32.0898 33.1658 31.833C33.1658 31.5762 33.0613 31.3252 32.8796 31.1426Z" fill="#F44E19"/>
<path d="M22.3633 14.7461C20.3171 14.7461 18.6523 16.4108 18.6523 18.457C18.6523 20.5032 20.3171 22.168 22.3633 22.168C24.4095 22.168 26.0742 20.5032 26.0742 18.457C26.0742 16.4108 24.4095 14.7461 22.3633 14.7461ZM22.3633 20.2148C21.394 20.2148 20.6055 19.4264 20.6055 18.457C20.6055 17.4878 21.394 16.6992 22.3633 16.6992C23.3325 16.6992 24.1211 17.4878 24.1211 18.457C24.1211 19.4263 23.3325 20.2148 22.3633 20.2148Z" fill="#F44E19"/>
</svg>
