<svg width="700" height="618" viewBox="0 0 700 618" fill="none" xmlns="http://www.w3.org/2000/svg">
<path d="M369.79 15.5932C279.507 33.1494 233.413 134.087 88.0227 223.908C-57.3674 313.729 -25.3576 664.454 204.266 607.248C423.324 552.678 433.467 556.988 576.931 562.024C756.499 568.333 655.499 -39.9714 369.79 15.5932Z" fill="#F8F8F8"/>
<path d="M124.932 163.556C167.306 130.275 202.592 72.1826 182.529 16.21C162.466 -39.7627 121.03 64.4197 87.6996 99.124C39.458 149.344 36.2621 233.214 124.942 163.556H124.932Z" fill="#F8F8F8"/>
<path d="M646.537 613.517H20.0215V617.827H646.537V613.517Z" fill="#000A3D"/>
<path d="M180.246 581.868C178.532 580.216 162.653 583.699 162.613 584.664C162.481 587.64 163.107 598.916 164.831 600.21C166.494 601.464 182.534 599.464 182.494 596.597C182.464 594.119 181.899 583.46 180.246 581.868Z" fill="#FFD2D4"/>
<path d="M163.277 596.936C163.277 596.936 157.158 608.321 163.489 615.905C163.489 615.905 202.395 613.019 213.848 609.804C213.848 609.804 212.396 595.692 202.244 595.702C192.081 595.722 182.11 597.274 182.11 597.274C182.11 597.274 171.524 603.833 163.277 596.926V596.936Z" fill="#303335"/>
<path d="M80.9679 585.411C79.9899 583.251 63.9296 580.733 63.5263 581.619C62.2963 584.346 58.687 595.055 59.8061 596.886C60.8849 598.658 76.5419 602.609 77.5703 599.931C78.4575 597.613 81.9055 587.501 80.9679 585.411Z" fill="#FFD2D4"/>
<path d="M59.4543 595.055C59.4543 595.055 51.5804 605.336 56.6113 613.815C56.6113 613.815 95.4868 617.05 107.313 615.676C107.313 615.676 108.15 601.514 98.1182 599.942C88.0867 598.359 77.9847 598.339 77.9847 598.339C77.9847 598.339 66.4814 603.156 59.4543 595.045V595.055Z" fill="#303335"/>
<path d="M225.511 321.153C223.162 324.02 211.649 329.165 208.493 328.697C187.331 325.662 175.889 307.648 167.571 299.139C166.139 297.695 164.859 296.203 163.72 294.69C158.034 287.235 155.614 279.303 154.626 272.675C153.638 265.937 154.112 261.23 154.112 261.23C154.112 261.23 142.306 203.446 154.475 208.989C166.724 214.602 181.978 239.473 193.129 258.483C193.461 259.02 193.754 259.568 194.076 260.075C194.772 261.269 195.437 262.424 196.093 263.509C197.817 266.475 199.43 269.261 200.892 271.66C204.047 276.945 212.062 289.067 212.062 289.067C212.062 289.067 235.25 309.39 225.501 321.153H225.511Z" fill="#FFD2D4"/>
<path d="M111.235 382.053C112.424 384.7 113.735 387.487 115.056 390.343C124.2 409.92 135.35 432.721 137.095 444.803C158.125 468.43 155.877 516.709 157.42 543.392C158.629 565.268 160.021 589.173 160.616 591.134C160.656 591.204 183.773 593.274 183.773 593.274C189.046 564.461 200.913 472.212 200.913 452.168C200.913 432.123 182.241 350.792 167.784 324.418C154.032 299.348 108.432 349.18 103.189 355.838C101.183 358.396 105.276 368.876 111.245 382.043L111.235 382.053Z" fill="#303335"/>
<path d="M111.236 382.052C112.426 384.699 113.737 387.486 115.057 390.342C124.202 409.919 133.527 433.118 137.096 444.802C149.85 486.593 154.518 565.088 160.617 591.123C162.603 592.258 166.334 593.383 175.962 592.557C176.274 573.239 164.559 550.179 161.202 531.488C154.729 495.789 164.973 457.084 147.329 423.613C142.379 414.228 134.697 404.754 134.707 393.686C134.707 388.213 137.903 381.783 134.425 376.698C128.244 367.641 118.052 374.598 113.555 381.365C112.991 381.186 112.365 381.186 111.801 381.614C111.63 381.773 111.418 381.893 111.246 382.042L111.236 382.052Z" fill="#FFAF97"/>
<path d="M154.11 261.229C154.11 261.229 153.637 265.937 154.625 272.675C155.774 280.507 158.869 291.047 166.945 300.014C175.181 309.16 203.34 264.573 195.254 253.377C182.944 236.318 166.521 214.503 154.473 208.999C142.295 203.455 154.11 261.239 154.11 261.239V261.229Z" fill="#FFE5DD"/>
<path d="M153.919 220.743C153.919 220.743 161.995 224.674 163.83 236.896C165.665 249.117 170.333 271.819 167.177 284.389C164.677 294.381 164.031 296.262 163.951 296.262C163.951 296.262 163.941 296.262 163.931 296.262L156.722 285.702C156.722 285.702 148.999 273.968 150.189 271.182C151.379 268.395 153.919 220.753 153.919 220.753V220.743Z" fill="#FFD4C6"/>
<path d="M59.5846 585.411C65.3413 591.9 81.1294 595.214 81.1294 595.214C95.1734 564.839 109.187 505.562 111.304 471.236C114.591 417.921 123.866 365.889 123.453 351.916C123.372 349.667 123.342 348.473 123.342 348.473C109.359 333.345 92.3304 325.164 82.3393 324.507C78.3973 324.238 75.5743 325.144 74.4351 327.234C70.7552 334.091 67.9323 340.401 65.7849 346.313C65.5631 346.9 65.3715 347.497 65.18 348.084C51.8921 385.277 55.9551 405.182 58.1933 453.252C59.2821 475.934 67.9323 572.732 59.5745 585.401L59.5846 585.411Z" fill="#303335"/>
<path d="M59.5823 585.411C61.1248 588.387 73.7977 594.478 74.0598 593.273C78.5462 574.005 78.8285 559.047 81.5103 539.48C84.1114 520.531 81.5708 500.865 79.8064 481.955C78.7479 470.878 77.3566 459.821 75.0882 448.883C72.8701 438.194 69.7851 427.734 68.7366 416.876C66.6295 395.667 70.9546 374.598 78.4353 354.782C78.6571 354.225 78.5966 353.757 78.3647 353.409C79.2419 352.643 79.4637 351.249 78.1429 350.662C73.5154 348.512 69.1802 347.756 65.1878 348.104C51.8999 385.297 55.9629 405.202 58.2011 453.272C59.2899 475.954 63.5243 511.374 63.6553 536.395C63.8671 577.927 60.7518 582.863 59.5823 585.421V585.411Z" fill="#FFAF97"/>
<path d="M174.377 333.295C173.833 334.997 167.633 338.072 158.539 341.297C148.376 344.85 134.584 348.542 120.762 350.642C102.06 353.498 83.2478 353.429 73.1962 351.548C69.0929 350.791 66.4515 349.706 65.8264 348.393C63.8806 344.262 61.4206 319.471 60.6141 292.749C60.4628 287.573 60.3519 282.318 60.3519 277.173C60.2007 250.311 62.1163 225.141 68.2763 220.474C69.6676 219.389 71.2807 218.264 73.0752 217.07C75.757 215.259 78.8723 213.378 82.3908 211.566C87.8955 208.71 94.3479 206.063 101.577 204.251C112.687 201.395 125.632 200.449 139.867 203.674C139.867 203.674 139.867 203.714 139.908 203.714C143.356 204.47 146.874 205.485 150.473 206.829C151.31 207.117 152.157 207.446 153.044 207.774C165.072 212.552 163.348 238.408 161.402 260.094C160.525 270.156 159.608 279.313 159.971 285.035C160.122 286.956 160.333 288.877 160.707 290.758C163.419 306.722 172.371 321.68 174.388 333.295H174.377Z" fill="#FFA68A"/>
<path d="M129.3 190.387V202.002C129.3 202.002 132.083 207.038 129.3 207.585C123.191 208.79 114.369 202.012 114.369 202.012V184.287L129.3 190.397V190.387Z" fill="#FFD2D4"/>
<path d="M137.787 163.785C137.787 163.785 140.439 175.777 139.259 186.068C138.422 193.373 122.967 199.474 114.8 186.904C106.624 174.324 113.429 159.833 113.429 159.833L137.787 163.795V163.785Z" fill="#FFD2D4"/>
<path d="M99.0056 279.89C111.295 262.364 107.484 237.96 94.2369 221.349C89.7203 215.667 83.53 215.776 82.6428 216.095C83.3788 216.383 91.9988 221.349 91.4443 222.434C84.508 236.557 76.7349 250.132 68.0846 263.309C64.9694 268.056 62.3985 272.545 60.3418 277.173C60.3418 282.318 60.4527 287.563 60.6039 292.748C61.4105 319.471 63.8704 344.262 65.8162 348.393C66.4413 349.696 69.0827 350.781 73.1861 351.548C76.8155 340.54 72.4904 327.512 73.9523 316.425C76.009 300.969 90.6075 291.803 99.0056 279.9V279.89Z" fill="#FFD4C6"/>
<path d="M134.02 153.543C132.125 152.936 130.058 153.215 128.122 154.479C125.108 151.911 120.833 150.816 117.688 153.742C114.522 153.145 111.205 153.424 109.138 156.32C107.475 158.659 107.616 161.734 109.794 163.645C108.342 165.218 107.525 167.318 107.807 169.477C107.868 169.975 107.828 170.403 107.888 170.492C107.586 170.841 107.223 171.169 106.991 171.577C106.235 172.971 106.457 174.016 106.719 175.489C107.152 177.947 106.164 180.574 108.886 182.137C111.145 183.441 113.796 182.565 115.087 180.415C117.032 177.191 115.933 172.642 116.075 169.109C116.125 167.945 116.407 166.312 116.135 164.989C117.143 164.979 118.151 164.999 119.109 165.257C121.287 165.825 122.809 166.004 125.057 166.163C126.056 166.233 126.58 165.815 127.437 166.094C127.911 166.253 128.092 167.019 128.647 167.198C135.23 169.248 145.443 170.94 147.621 161.963C149.677 153.474 139.837 147.522 134.02 153.543Z" fill="#000A3D"/>
<path d="M25.3267 340.6C40.9132 362.187 110.095 341.904 110.095 341.904L109.117 329.961C109.117 329.961 68.4265 333.235 60.3308 319.889C58.8589 317.471 63.1638 289.743 70.7151 282.577C74.0925 279.393 77.6413 276.238 80.7264 273.6C88.2071 267.151 93.6009 258.542 95.2846 248.868C96.9279 239.603 95.5769 231.78 93.3085 225.659C90.1529 217.15 79.2645 214.433 72.1467 220.155C58.4657 231.163 36.4167 259.398 35.8723 260.085C16.3236 285.314 9.68977 318.944 25.3267 340.6Z" fill="#FFD2D4"/>
<path d="M70.7677 288.509C73.883 285.573 93.472 266.614 96.4764 247.764C97.8375 239.194 95.1557 218.503 84.3379 216.025C67.0173 212.064 43.8795 236.876 27.9199 255.606C35.2494 271.918 51.3199 283.334 70.7677 288.499V288.509Z" fill="#FFE5DD"/>
<path d="M163.088 337.843L116.953 340.6L160.94 352.772L163.088 337.843Z" fill="url(#paint0_linear_1027_9249)"/>
<path d="M116.951 340.6L116.719 344.9L160.958 358.246L160.938 352.772L116.951 340.6Z" fill="white"/>
<path d="M256.05 347.099L160.938 352.772L160.958 358.246L256.019 351.976L256.05 347.099Z" fill="url(#paint1_linear_1027_9249)"/>
<path d="M256.049 347.099L160.947 352.772L168.277 301.776C168.509 300.004 169.981 298.66 171.775 298.551L259.235 293.336C261.594 293.197 263.5 295.217 263.197 297.526L256.059 347.109L256.049 347.099Z" fill="white"/>
<path d="M144.685 327.174C141.791 326.219 138.615 325.98 135.43 326.189C135.036 326.08 134.663 326.08 134.28 326.01C134.492 325.672 134.744 325.343 134.905 324.985C135.944 322.736 136.105 318.944 133.282 317.819C130.308 316.625 128.413 320.377 126.89 322.188C125.106 324.308 123.049 326.388 120.579 327.672C118.059 328.707 115.296 328.896 112.614 329.354C110.699 329.682 107.533 329.782 106.353 331.653C105.416 333.146 105.406 336.251 105.819 337.933C106.343 340.053 108.219 341.048 110.094 341.894C111.294 342.432 113.179 343.049 115.135 343.347C118.22 344.233 121.436 344.79 124.581 343.905C125.267 343.715 125.892 343.437 126.517 343.148C129.29 344.283 132.254 344.661 135.319 344.193C136.78 343.964 137.224 342.591 136.831 341.506C137.446 341.327 138.021 341.048 138.464 340.6C139.009 340.053 139.19 339.396 139.22 338.729C139.825 338.401 140.38 338.003 140.773 337.595C142.446 335.873 142.699 333.743 142.073 332.071C144.937 333.425 147.417 335.614 149.655 338.023C150.794 339.237 152.538 338.759 153.194 337.356C155.301 332.798 148.294 328.379 144.705 327.184L144.685 327.174Z" fill="#FFD2D4"/>
<path d="M222.79 351.578C222.961 350.692 223.808 349.149 225.139 349.398C225.3 349.428 225.441 349.488 225.572 349.567C225.471 348.96 225.471 348.333 225.623 347.716C225.945 346.412 227.236 344.492 229.05 345.586C229.766 346.014 230.311 346.641 230.754 347.358C231.016 346.193 231.742 345.178 233.224 344.631C235.382 343.825 236.4 345.178 236.975 346.751C237.328 345.168 238.275 342.879 240.372 344.024C241.552 344.661 242.338 346.183 242.943 347.189C243.82 348.642 244.465 350.164 244.939 351.747C244.949 351.807 244.949 351.866 244.949 351.926C245.111 352.085 245.191 352.324 245.08 352.593C244.425 354.255 242.379 355.997 240.362 354.494C239.858 354.116 239.374 353.658 238.941 353.15C239.082 354.643 238.729 355.947 237.076 356.275C235.331 356.614 233.859 355.409 232.781 353.946C232.771 353.976 232.76 354.016 232.74 354.046C232.277 354.713 231.662 355.608 230.593 355.599C229.756 355.599 229.05 355.001 228.466 354.394C228.435 354.573 228.355 354.733 228.193 354.822C225.471 356.295 222.275 354.205 222.779 351.568L222.79 351.578Z" fill="#FFD2D4"/>
<path d="M104.177 331.693L112.111 330.996V341.118C112.111 341.118 109.883 340.252 106.778 341.287C103.673 342.322 104.177 331.703 104.177 331.703V331.693Z" fill="#FFD2D4"/>
<path d="M212.775 601.474V582.405C212.775 576.095 207.593 570.979 201.201 570.979H137.978C131.586 570.979 126.404 565.864 126.404 559.554V539.549C126.404 537.25 127.11 535.001 128.421 533.1L214.52 408.684C216.677 405.569 220.256 403.708 224.077 403.708H240.359C246.751 403.708 251.933 408.824 251.933 415.133V524.441C251.933 530.751 257.115 535.867 263.507 535.867H266.552C272.944 535.867 278.126 540.982 278.126 547.292V559.544C278.126 565.854 272.944 570.969 266.552 570.969H263.507C257.115 570.969 251.933 576.085 251.933 582.395V601.464C251.933 607.773 246.751 612.889 240.359 612.889H224.349C217.957 612.889 212.775 607.773 212.775 601.464V601.474ZM212.775 524.441V502.138C212.775 490.852 197.975 486.403 191.593 495.758L176.39 518.062C171.218 525.656 176.733 535.867 185.998 535.867H201.201C207.593 535.867 212.775 530.751 212.775 524.441Z" fill="#F44E19"/>
<path d="M573.447 32.9815L355.408 141.896L357.411 145.803L575.449 36.8888L573.447 32.9815Z" fill="#15181B"/>
<path d="M305.234 140.615L247.133 200.917H358.134L358.426 201.196V200.917H538.891V613.517H543.529V566.014L575.004 597.205L558.541 613.517H567.584L579.521 601.683L591.458 613.517H600.501L584.037 597.205L615.463 566.063V613.517H620.1V200.917H699.999V140.615H305.234ZM299.216 196.538H257.487L300.143 152.27L299.216 196.538ZM303.652 196.538L304.609 150.856L353.446 196.538H303.652ZM354.111 191.124L306.031 146.149L307.14 144.994H354.706L354.121 191.114L354.111 191.124ZM587.213 145.004H637.874L586.588 193.95L587.203 145.004H587.213ZM582.777 145.004L582.192 191.124L532.872 145.004H582.777ZM359.142 145.004H409.803L358.517 193.95L359.142 145.004ZM413.251 196.538H362.197L414.29 146.816L413.251 196.538ZM417.687 196.538L418.645 150.856L467.481 196.538H417.687ZM468.157 191.124L418.847 145.004H468.752L468.167 191.124H468.157ZM473.178 145.004H523.839L472.563 193.95L473.178 145.004ZM527.297 196.538H476.243L528.335 146.816L527.297 196.538ZM531.733 196.538L532.691 150.856L581.245 196.269L531.743 196.538H531.733ZM545.041 476.939H614.001L579.521 511.106L545.041 476.939ZM611.974 552.229H547.067L579.521 520.073L611.974 552.229ZM547.067 470.619L579.521 438.463L611.974 470.619H547.067ZM543.529 465.175V402.793L575.004 433.984L543.529 465.175ZM545.041 395.339H614.001L579.521 429.505L545.041 395.339ZM543.529 383.565V321.183L575.004 352.364L543.529 383.555V383.565ZM547.067 389.019L579.521 356.852L611.974 389.019H547.067ZM545.041 313.728H614.001L579.521 347.895L545.041 313.728ZM547.067 307.409L579.521 275.252L611.974 307.409H547.067ZM545.041 232.118H614.001L579.521 266.285L545.041 232.118ZM575.004 270.764L543.529 301.955V239.573L575.004 270.764ZM543.529 484.403L575.004 515.594L543.529 546.785V484.403ZM579.521 592.726L545.041 558.559H614.001L579.521 592.726ZM615.463 546.736L584.037 515.594L615.463 484.463V546.736ZM615.463 465.125L584.037 433.984L615.463 402.843V465.125ZM615.463 383.515L584.037 352.374L615.463 321.243V383.515ZM615.463 301.905L584.037 270.764L615.463 239.622V301.905ZM615.463 225.798H543.529V200.927H615.463V225.798ZM641.333 196.548L590.55 196.279L642.361 146.826L641.322 196.548H641.333ZM695.563 196.548H645.779L646.736 150.866L695.573 196.548H695.563ZM695.563 190.517L646.918 145.014H695.563V190.517Z" fill="#15181B"/>
<path d="M606.549 34.5021C604.946 27.0278 598.171 21.5938 590.428 21.5938H588.392C580.649 21.5938 573.874 27.0178 572.291 34.4225L551.805 116.53H627.015L606.549 34.5021ZM619.918 106.409L592.233 75.6655L607.9 58.1989L619.928 106.409H619.918ZM576.626 35.4078C577.796 29.9439 582.746 25.9828 588.402 25.9828H590.438C596.094 25.9828 601.044 29.9439 602.234 35.4874L605.289 47.7389L573.531 47.8484L576.636 35.4078H576.626ZM572.462 52.108L606.347 51.9886L606.64 53.1729L589.349 72.4608L572.15 53.362L572.462 52.108ZM570.9 58.3781L586.476 75.6655L558.933 106.369L570.9 58.3781ZM559.497 112.161L589.36 78.8702L619.333 112.161H559.497Z" fill="#15181B"/>
<path d="M618.307 107.523V154.638C618.307 155.773 617.692 156.828 616.684 157.405L599.717 167.079C597.559 168.303 594.867 166.78 594.867 164.312V107.523C594.867 105.762 596.319 104.338 598.103 104.338H615.071C616.856 104.338 618.318 105.762 618.318 107.523H618.307Z" fill="#FBFBF7"/>
<path d="M578.677 107.533V193.213C578.677 194.975 577.225 196.398 575.441 196.398H521.967C519.607 196.398 518.045 194 519.023 191.88L551.708 121.297C556.83 112.788 565.127 106.806 574.614 104.447C576.671 103.93 578.687 105.443 578.687 107.533H578.677Z" fill="#FBFBF7"/>
<path d="M582.156 110.22L534.973 200.688L546.768 199.345L586.692 118.282L582.156 110.22Z" fill="#FFE7E0"/>
<path d="M606.876 98.5757L549.943 205.843L557.424 202.927L607.107 105.075L606.876 98.5757Z" fill="#FFE7E0"/>
<path d="M622.008 123.129L587.367 187.263L594.858 184.347L622.23 129.628L622.008 123.129Z" fill="#FFE7E0"/>
<path d="M618.025 91.4499H579.371C562.898 91.4499 547.644 100.009 539.216 113.992L503.617 190.905C499.846 199.036 505.875 208.282 514.928 208.282H614.335C614.476 208.282 614.597 208.282 614.718 208.262C622.572 208.073 628.883 201.713 628.883 193.92V102.159C628.883 96.237 624.024 91.4399 618.025 91.4399V91.4499ZM578.686 193.214C578.686 194.975 577.234 196.399 575.45 196.399H521.976C519.616 196.399 518.054 194 519.032 191.88L551.717 121.297C556.839 112.788 565.136 106.807 574.623 104.448C576.68 103.93 578.696 105.443 578.696 107.533V193.214H578.686ZM618.307 154.648C618.307 155.783 617.693 156.838 616.684 157.415L599.717 167.089C597.559 168.313 594.867 166.79 594.867 164.322V107.533C594.867 105.771 596.319 104.348 598.104 104.348H615.071C616.856 104.348 618.318 105.771 618.318 107.533V154.648H618.307Z" fill="#FFD4C6"/>
<path d="M347.821 272.147L345.17 273.302V173.449H347.821V272.147Z" fill="#15181B"/>
<path d="M364.446 274.874L361.795 273.302V173.449H364.446V274.874Z" fill="#15181B"/>
<path d="M358.792 292.321H349.547V309.021H358.792V292.321Z" fill="#15181B"/>
<path d="M354.173 296.192C346.803 296.192 340.805 290.271 340.805 282.995C340.805 275.72 346.803 269.798 354.173 269.798C361.543 269.798 367.542 275.72 367.542 282.995C367.542 290.271 361.543 296.192 354.173 296.192ZM354.173 271.092C347.529 271.092 342.115 276.437 342.115 282.995C342.115 289.554 347.529 294.898 354.173 294.898C360.817 294.898 366.231 289.564 366.231 282.995C366.231 276.427 360.817 271.092 354.173 271.092ZM354.173 290.549C349.949 290.549 346.521 287.165 346.521 282.995C346.521 278.825 349.959 275.441 354.173 275.441C358.387 275.441 361.825 278.835 361.825 282.995C361.825 287.155 358.387 290.549 354.173 290.549ZM354.173 276.735C350.675 276.735 347.832 279.542 347.832 282.995C347.832 286.449 350.675 289.255 354.173 289.255C357.672 289.255 360.515 286.449 360.515 282.995C360.515 279.542 357.672 276.735 354.173 276.735Z" fill="#15181B"/>
<path d="M360.293 325.294C358.66 324.706 357.581 323.214 357.581 321.502V307.887H350.927V327.374C350.927 329.543 352.711 331.305 354.919 331.305C357.531 331.434 359.88 332.559 361.594 334.311C363.287 336.062 364.336 338.441 364.336 341.048C364.336 344.233 362.753 346.811 360.162 348.314C359.053 348.951 357.742 349.398 356.301 349.588C355.696 349.677 355.081 349.717 354.446 349.717C353.81 349.717 353.185 349.677 352.59 349.588C351.149 349.388 349.848 348.951 348.739 348.314C346.178 346.831 344.616 344.313 344.565 341.198C344.525 339.297 343.103 337.635 341.188 337.535C339.131 337.426 337.438 339.038 337.438 341.038C337.438 345.497 339.242 349.388 342.247 352.185C342.942 352.822 343.678 353.399 344.475 353.907C347.247 355.698 350.655 356.733 354.446 356.733C358.236 356.733 361.644 355.698 364.416 353.907C365.213 353.399 365.959 352.822 366.645 352.185C369.659 349.388 371.454 345.497 371.454 341.038C371.454 333.803 366.806 327.632 360.303 325.284L360.293 325.294Z" fill="#15181B"/>
<path d="M356.34 231.402C340.229 231.402 327.133 218.464 327.133 202.57C327.133 186.676 340.239 173.737 356.34 173.737C372.441 173.737 385.547 186.676 385.547 202.57C385.547 218.464 372.441 231.402 356.34 231.402ZM356.34 175.021C340.955 175.021 328.443 187.372 328.443 202.56C328.443 217.747 340.955 230.098 356.34 230.098C371.725 230.098 384.236 217.747 384.236 202.56C384.236 187.372 371.725 175.021 356.34 175.021Z" fill="#15181B"/>
<path d="M373.36 202.569C373.36 193.294 365.748 185.77 356.352 185.77C346.956 185.77 339.334 193.294 339.334 202.569C339.334 211.845 346.946 219.369 356.352 219.369C365.758 219.369 373.36 211.845 373.36 202.569Z" fill="#F44E19"/>
<path d="M360.293 325.294C358.66 324.706 357.581 323.214 357.581 321.502V307.887H350.927V327.374C350.927 329.543 352.711 331.305 354.919 331.305C357.531 331.434 359.88 332.559 361.594 334.311C363.287 336.062 364.336 338.441 364.336 341.048C364.336 344.233 362.753 346.811 360.162 348.314C359.053 348.951 357.742 349.398 356.301 349.588C355.696 349.677 355.081 349.717 354.446 349.717C353.81 349.717 353.185 349.677 352.59 349.588C351.149 349.388 349.848 348.951 348.739 348.314C346.178 346.831 344.616 344.313 344.565 341.198C344.525 339.297 343.103 337.635 341.188 337.535C339.131 337.426 337.438 339.038 337.438 341.038C337.438 345.497 339.242 349.388 342.247 352.185C342.942 352.822 343.678 353.399 344.475 353.907C347.247 355.698 350.655 356.733 354.446 356.733C358.236 356.733 361.644 355.698 364.416 353.907C365.213 353.399 365.959 352.822 366.645 352.185C369.659 349.388 371.454 345.497 371.454 341.038C371.454 333.803 366.806 327.632 360.303 325.284L360.293 325.294Z" fill="#15181B"/>
<path d="M350.737 315.062C369.449 315.281 383.987 322.049 394.371 335.355C406.741 351.11 412.7 377.066 412.266 413.223C411.823 449.291 405.179 475.148 392.344 490.773C381.728 503.651 367.079 509.981 348.367 509.762C329.575 509.543 314.503 502.228 303.181 487.827C291.849 473.426 286.405 447.937 286.858 411.342C287.302 375.444 293.936 349.687 306.78 334.051C317.396 321.173 332.055 314.843 350.767 315.062H350.737ZM350.364 345.367C345.887 345.318 341.865 346.681 338.326 349.458C334.777 352.235 331.985 357.251 329.968 364.516C327.296 373.941 325.835 389.835 325.562 412.198C325.29 434.571 326.238 449.948 328.426 458.348C330.613 466.748 333.416 472.351 336.854 475.167C340.292 477.984 344.254 479.417 348.73 479.467C353.207 479.517 357.219 478.163 360.768 475.386C364.317 472.61 367.1 467.594 369.126 460.328C371.788 450.993 373.26 435.149 373.532 412.775C373.804 390.402 372.846 375.026 370.669 366.626C368.481 358.236 365.678 352.603 362.24 349.746C358.802 346.89 354.85 345.427 350.374 345.377L350.364 345.367Z" fill="#F44E19"/>
<path d="M371.442 341.038C371.442 345.517 369.627 349.398 366.633 352.205C366.21 352.593 365.756 352.951 365.302 353.28C365 353.519 364.697 353.728 364.395 353.937C361.643 355.728 358.225 356.743 354.414 356.743C350.603 356.743 347.215 355.728 344.463 353.937C343.646 353.429 342.921 352.832 342.225 352.205C341.106 351.16 340.168 349.995 339.412 348.682C341.439 347.278 343.616 346.323 345.975 345.815C346.671 346.831 347.609 347.667 348.728 348.323C349.817 348.95 351.117 349.398 352.569 349.607C353.174 349.697 353.779 349.727 354.414 349.727C355.049 349.727 355.684 349.697 356.289 349.607C357.741 349.398 359.041 348.95 360.161 348.323C360.191 348.323 360.191 348.294 360.221 348.294C362.762 346.801 364.334 344.203 364.334 341.038C364.334 338.441 363.276 336.082 361.582 334.32C359.858 332.559 357.499 331.454 354.898 331.305C352.69 331.305 350.905 329.543 350.905 327.364V307.896H357.559V321.511C357.559 323.213 358.648 324.706 360.281 325.303C366.784 327.662 371.442 333.813 371.442 341.038Z" fill="#15181B"/>
<path d="M481.023 601.474V582.405C481.023 576.095 475.841 570.979 469.449 570.979H406.226C399.834 570.979 394.652 565.864 394.652 559.554V539.549C394.652 537.25 395.358 535.001 396.669 533.1L482.768 408.684C484.925 405.569 488.504 403.708 492.325 403.708H508.607C514.999 403.708 520.181 408.824 520.181 415.133V524.441C520.181 530.751 525.363 535.867 531.755 535.867H534.81C541.202 535.867 546.384 540.982 546.384 547.292V559.544C546.384 565.854 541.202 570.969 534.81 570.969H531.755C525.363 570.969 520.181 576.085 520.181 582.395V601.464C520.181 607.773 514.999 612.889 508.607 612.889H492.597C486.205 612.889 481.023 607.773 481.023 601.464V601.474ZM481.023 524.441V502.138C481.023 490.852 466.223 486.403 459.841 495.758L444.638 518.062C439.466 525.656 444.981 535.867 454.246 535.867H469.449C475.841 535.867 481.023 530.751 481.023 524.441Z" fill="#F44E19"/>
<path d="M193.592 12.9546C160.473 12.9546 133.625 39.458 133.625 72.1519C133.625 92.5843 144.11 110.598 160.06 121.237C162.681 128.99 165.06 139.301 161.582 144.666C161.582 144.666 176.906 146.925 189.72 131.16C191.001 131.24 192.281 131.349 193.592 131.349C226.711 131.349 253.559 104.846 253.559 72.1519C253.559 39.458 226.711 12.9546 193.592 12.9546Z" fill="#FFD4C6"/>
<path d="M189.145 90.4938L185.031 49.1314V30.0127H202.15V49.1314L198.097 90.4938H189.145ZM185.707 111.513V95.8881H201.535V111.513H185.707Z" fill="white"/>
<defs>
<linearGradient id="paint0_linear_1027_9249" x1="116.953" y1="345.308" x2="163.088" y2="345.308" gradientUnits="userSpaceOnUse">
<stop stop-color="#D1E7FF"/>
<stop offset="1" stop-color="#A5CDFE"/>
</linearGradient>
<linearGradient id="paint1_linear_1027_9249" x1="160.938" y1="352.673" x2="256.05" y2="352.673" gradientUnits="userSpaceOnUse">
<stop stop-color="#D1E7FF"/>
<stop offset="1" stop-color="#A5CDFE"/>
</linearGradient>
</defs>
</svg>
