<svg width="63" height="37" viewBox="0 0 63 37" fill="none" xmlns="http://www.w3.org/2000/svg">
<path d="M54.4656 16.1902V10.9293C54.4656 8.32231 52.3421 6.21484 49.7152 6.21484H39.5539V24.0737H4.52393V27.8671H62.0001V23.0434C62.0001 18.3757 60.4901 16.1902 54.4656 16.1902Z" fill="#FFDE1D" stroke="#434041" stroke-width="0.72" stroke-linecap="round" stroke-linejoin="round"/>
<path d="M47.9692 8.57129H42.5425V16.1426H51.65V12.2086C51.65 10.1948 50.0141 8.57129 47.9849 8.57129H47.9692Z" fill="#7DCAEF" stroke="#434041" stroke-width="0.72" stroke-linecap="round" stroke-linejoin="round"/>
<path d="M17.6102 30.8015C17.6102 33.6739 15.2665 35.9999 12.3723 35.9999C9.478 35.9999 7.13428 33.6739 7.13428 30.8015C7.13428 27.929 9.478 25.603 12.3723 25.603C15.2665 25.603 17.6102 27.929 17.6102 30.8015Z" fill="#A6A5AA" stroke="#434041" stroke-width="0.72" stroke-linecap="round" stroke-linejoin="round"/>
<path d="M14.2283 30.8011C14.2283 31.8158 13.3946 32.6432 12.3722 32.6432C11.3498 32.6432 10.5161 31.8158 10.5161 30.8011C10.5161 29.7864 11.3498 28.959 12.3722 28.959C13.3946 28.959 14.2283 29.7864 14.2283 30.8011Z" fill="#D8DADE" stroke="#434041" stroke-width="0.72" stroke-linecap="round" stroke-linejoin="round"/>
<path d="M40.8275 30.8015C40.8275 33.6739 38.4838 35.9999 35.5895 35.9999C32.6953 35.9999 30.3516 33.6739 30.3516 30.8015C30.3516 27.929 32.6953 25.603 35.5895 25.603C38.4838 25.603 40.8275 27.929 40.8275 30.8015Z" fill="#A6A5AA" stroke="#434041" stroke-width="0.72" stroke-linecap="round" stroke-linejoin="round"/>
<path d="M37.4456 30.8011C37.4456 31.8158 36.6119 32.6432 35.5895 32.6432C34.5671 32.6432 33.7334 31.8158 33.7334 30.8011C33.7334 29.7864 34.5671 28.959 35.5895 28.959C36.6119 28.959 37.4456 29.7864 37.4456 30.8011Z" fill="#D8DADE" stroke="#434041" stroke-width="0.72" stroke-linecap="round" stroke-linejoin="round"/>
<path d="M60.1278 30.8015C60.1278 33.6739 57.7841 35.9999 54.8898 35.9999C51.9956 35.9999 49.6519 33.6739 49.6519 30.8015C49.6519 27.929 51.9956 25.603 54.8898 25.603C57.7841 25.603 60.1278 27.929 60.1278 30.8015Z" fill="#A6A5AA" stroke="#434041" stroke-width="0.72" stroke-linecap="round" stroke-linejoin="round"/>
<path d="M56.7459 30.8011C56.7459 31.8158 55.9122 32.6432 54.8898 32.6432C53.8674 32.6432 53.0337 31.8158 53.0337 30.8011C53.0337 29.7864 53.8674 28.959 54.8898 28.959C55.9122 28.959 56.7459 29.7864 56.7459 30.8011Z" fill="#D8DADE" stroke="#434041" stroke-width="0.72" stroke-linecap="round" stroke-linejoin="round"/>
<path d="M47.0884 18.9372C47.0884 19.4211 46.6951 19.827 46.2075 19.827H43.4391C42.9515 19.827 42.5425 19.4367 42.5425 18.9372C42.5425 18.4533 42.9357 18.063 43.4391 18.063H46.2075C46.6951 18.063 47.0884 18.4533 47.0884 18.9372Z" fill="#B0AFB5" stroke="#434041" stroke-width="0.72" stroke-linecap="round" stroke-linejoin="round"/>
<path d="M60.1282 20.4357C60.1282 21.5129 59.2474 22.3871 58.162 22.3871C57.0767 22.3871 56.1958 21.5129 56.1958 20.4357C56.1958 19.3586 57.0767 18.4844 58.162 18.4844C59.2474 18.4844 60.1282 19.3586 60.1282 20.4357Z" fill="#EB7712" stroke="#434041" stroke-width="0.72" stroke-linecap="round" stroke-linejoin="round"/>
<path d="M39.569 2.79541H2.63574L7.84226 24.0418H39.569V2.79541Z" fill="#A6A5AA" stroke="#434041" stroke-width="0.72" stroke-linecap="round" stroke-linejoin="round"/>
<path d="M40.8275 1H1V4.45001H40.8275V1Z" fill="#A6A5AA" stroke="#434041" stroke-width="0.72" stroke-linecap="round" stroke-linejoin="round"/>
</svg>
