<svg width="60" height="60" viewBox="0 0 60 60" fill="none" xmlns="http://www.w3.org/2000/svg">
<circle cx="30" cy="30" r="30" fill="#15181B"/>
<path d="M18.7952 45.1066V36.9813L21.4237 35.669V45.9185C22.2855 46.0948 23.1805 46.1968 24.103 46.2238V35.4056L22.2326 34.521L17.9863 36.4891V44.7302C18.2503 44.8647 18.5204 44.9898 18.7952 45.1066Z" fill="#F44E19"/>
<path d="M38.615 40.7195C40.6166 39.0396 42.3241 37.0864 43.691 34.9133C43.7542 34.8124 43.8159 34.7105 43.8782 34.6085V18.9943L38.5196 16.5225L33.3633 18.9943V30.5665L34.2733 30.1493V19.6397L38.2163 18.0276V41.0485C38.3506 40.9399 38.4838 40.8303 38.615 40.72V40.7195Z" fill="#F44E19"/>
<path d="M32.2893 44.6059C32.8836 44.3545 33.4239 44.1032 33.9403 43.8365L34.35 43.6199L34.7902 43.3768L35.2356 43.12C35.2387 43.1178 35.5561 42.926 35.5561 42.926C35.5831 42.9095 35.6095 42.8924 35.6365 42.8753V29.8784L31.7578 31.6575V44.8208C31.9352 44.7513 32.1125 44.6808 32.2893 44.6064V44.6059Z" fill="#F44E19"/>
<path d="M28.5938 45.7865C29.5454 45.5765 30.4995 45.2944 31.4515 44.9383V31.4432L33.1056 30.6843V22.6306L27.1445 20.5479V30.0478L28.5938 29.3831V45.7865Z" fill="#F44E19"/>
<path d="M24.6062 46.2326C24.9194 46.2326 25.2388 46.2238 25.5546 46.2062C26.46 46.1571 27.3726 46.0381 28.2878 45.8512V29.8777L24.4092 31.6567V46.2299C24.475 46.2304 24.5404 46.2321 24.6062 46.2321V46.2326Z" fill="#F44E19"/>
<path d="M32.0263 10.3919C32.0263 10.3919 32.1061 10.3753 32.2612 10.3428C32.4167 10.3125 32.6449 10.259 32.9482 10.2144C33.2516 10.162 33.6265 10.1113 34.0698 10.07C34.2917 10.0529 34.5303 10.0265 34.7859 10.0187C34.914 10.0138 35.0457 10.0083 35.1816 10.0028C35.3174 10.0017 35.4579 10.0011 35.6016 10C36.7527 10.0006 38.1668 10.1262 39.7597 10.5837C40.1585 10.695 40.5655 10.835 40.9819 10.997C41.0866 11.0345 41.1903 11.0802 41.2951 11.1249C41.3998 11.1695 41.5056 11.2147 41.6119 11.2604C41.7177 11.3084 41.8224 11.3608 41.9293 11.4109C42.035 11.4633 42.1439 11.5107 42.2497 11.5685C42.356 11.6253 42.4634 11.6826 42.5712 11.7399C42.6251 11.7691 42.6801 11.7967 42.733 11.8281C42.7864 11.8595 42.8398 11.8915 42.8932 11.9235C43.0006 11.9874 43.1089 12.0519 43.2173 12.1164C43.3241 12.1864 43.4315 12.2563 43.5398 12.3269C43.5938 12.3622 43.6482 12.398 43.7027 12.4338C43.7566 12.4702 43.8095 12.5099 43.8634 12.5479C43.9707 12.6251 44.0781 12.7033 44.1865 12.781C44.2933 12.862 44.3985 12.948 44.5059 13.0323C44.5593 13.0748 44.6132 13.1172 44.6666 13.1602C44.72 13.2037 44.7719 13.2506 44.8248 13.2958C44.93 13.3873 45.0358 13.4793 45.1426 13.5714C45.2458 13.6695 45.3495 13.7681 45.4538 13.8668C45.5056 13.9169 45.5585 13.9654 45.6098 14.0172C45.6606 14.0701 45.7109 14.1225 45.7618 14.1754C45.8624 14.2823 45.9671 14.3859 46.0667 14.4978C46.4685 14.9398 46.8502 15.4281 47.2168 15.9501C47.5782 16.4769 47.9137 17.0457 48.2238 17.6475C48.2979 17.8008 48.3721 17.954 48.4467 18.1083L48.5027 18.2246L48.5593 18.3536C48.5909 18.4252 48.6225 18.4968 48.6542 18.569L48.678 18.6231C48.6858 18.6407 48.6936 18.6589 48.7024 18.6815L48.7537 18.8093C48.7879 18.8948 48.8216 18.9802 48.8559 19.0662C48.9222 19.2365 48.9793 19.4002 49.0415 19.5683C49.2785 20.2417 49.4724 20.9488 49.6238 21.6775C49.7757 22.4061 49.8826 23.1572 49.9427 23.9211C50.0023 24.685 50.0153 25.4604 49.9821 26.2386C49.9495 27.0168 49.8753 27.7989 49.7524 28.5733C49.5113 30.1247 49.1042 31.6546 48.5572 33.1207C48.2829 33.8537 47.9759 34.5718 47.6394 35.2728C47.3018 35.9733 46.9337 36.6551 46.5396 37.317C44.9585 39.9625 42.9554 42.2745 40.7159 44.1582C39.5943 45.0985 38.4157 45.9384 37.1961 46.6626L36.9669 46.7971L36.8523 46.8643L36.7828 46.9046L36.7283 46.9349L36.5106 47.0567L36.4017 47.1178L36.3472 47.1482L36.2876 47.1801C36.1279 47.2644 35.9687 47.3488 35.8095 47.4331C35.6529 47.5114 35.4968 47.5902 35.3402 47.6684C34.7123 47.9738 34.0776 48.2554 33.4356 48.5028C30.8715 49.4998 28.2114 50.0135 25.6265 49.9997C23.0431 49.9876 20.5303 49.4409 18.3115 48.3678C17.2024 47.8338 16.1699 47.1663 15.2464 46.392C14.3224 45.6182 13.5088 44.7347 12.8285 43.7895C12.1471 42.8449 11.6037 41.8363 11.1879 40.8299C11.137 40.7032 11.0836 40.5797 11.0375 40.4524C11.0136 40.3896 10.9903 40.3262 10.967 40.2639L10.9317 40.1702L10.9141 40.1234C10.8944 40.0732 10.9042 40.0964 10.898 40.0799L10.8907 40.0578C10.8518 39.9388 10.8135 39.8208 10.7751 39.7034C10.7559 39.6445 10.7372 39.586 10.7181 39.5276L10.6895 39.44L10.6621 39.343C10.6258 39.214 10.59 39.0862 10.5542 38.9594C10.5189 38.8326 10.4816 38.7064 10.4557 38.5841C10.4277 38.4612 10.3997 38.3388 10.3722 38.2176C10.3447 38.0963 10.3172 37.9767 10.2975 37.8555C10.2757 37.7348 10.2545 37.6152 10.2332 37.4967C10.212 37.3782 10.1902 37.2613 10.1762 37.1434C10.1606 37.026 10.1446 36.9097 10.1295 36.7945C10.1145 36.6793 10.0969 36.5658 10.0886 36.4517C10.0689 36.2241 10.045 36.002 10.031 35.7832C10.0217 35.5644 10.0123 35.3495 10.0035 35.1395C9.98692 34.2984 10.0305 33.5318 10.1046 32.8495C10.1259 32.6798 10.1461 32.5139 10.1663 32.3535C10.1715 32.3133 10.1767 32.2736 10.1814 32.2344C10.1876 32.1953 10.1943 32.1562 10.2006 32.1176C10.213 32.0404 10.2254 31.9644 10.2379 31.8894C10.2633 31.7401 10.2846 31.5951 10.3136 31.4568C10.3426 31.3185 10.3701 31.1851 10.3971 31.0567C10.4469 30.7993 10.5106 30.5656 10.563 30.3512C10.6144 30.1363 10.6729 29.9456 10.7227 29.7742C10.8181 29.4303 10.9104 29.1745 10.968 29.0015C11.0271 28.829 11.0577 28.7397 11.0577 28.7397C11.0577 28.7397 11.0442 28.8345 11.0178 29.018C11.0043 29.1095 10.9877 29.223 10.9675 29.3581C10.9623 29.3917 10.9576 29.427 10.9519 29.4628C10.9478 29.4992 10.9431 29.5372 10.939 29.5763C10.9296 29.6546 10.9198 29.7384 10.9094 29.8271C10.8887 30.0045 10.8627 30.2013 10.8477 30.4201C10.8311 30.6384 10.8031 30.8742 10.7938 31.1322C10.787 31.2606 10.7803 31.3934 10.773 31.5312C10.7652 31.6684 10.7678 31.8117 10.7637 31.9578C10.7621 32.0311 10.7606 32.1055 10.759 32.181C10.7585 32.2185 10.7575 32.2565 10.7569 32.2951C10.7575 32.3331 10.758 32.3717 10.7585 32.4108C10.7611 32.5657 10.7642 32.7255 10.7668 32.8892C10.7927 33.5428 10.842 34.2615 10.9576 35.0265C11.079 35.7898 11.2527 36.6005 11.5192 37.4245C11.5488 37.5286 11.5861 37.6312 11.6234 37.7337C11.6602 37.8367 11.6971 37.9403 11.7339 38.0445C11.7691 38.1514 11.8111 38.2484 11.8521 38.3487C11.8925 38.4485 11.9335 38.5488 11.9745 38.6502L12.0051 38.7263L12.0424 38.8084C12.0673 38.8635 12.0927 38.9186 12.1181 38.9737C12.1684 39.0845 12.2192 39.1958 12.27 39.3083C12.3188 39.4047 12.3675 39.5012 12.4173 39.5987C12.4681 39.7029 12.5262 39.8032 12.5812 39.9057C13.0297 40.7214 13.5742 41.5145 14.2223 42.2397C14.8695 42.9656 15.6156 43.6259 16.4463 44.1935C17.277 44.7617 18.1912 45.2374 19.1671 45.6066C21.1194 46.3463 23.3123 46.6576 25.57 46.5331C27.8292 46.4113 30.1518 45.8541 32.4012 44.9105C32.9633 44.673 33.5222 44.4156 34.0734 44.1312C34.2109 44.0585 34.3483 43.9857 34.4857 43.913L34.8829 43.6936L34.9327 43.6661L34.9866 43.6347L35.095 43.5724L35.3117 43.4473L35.3656 43.4159L35.3926 43.4004C35.3734 43.4115 35.4019 43.3949 35.404 43.3933L35.5051 43.3321L35.7068 43.2097C36.7797 42.5495 37.8193 41.8071 38.804 40.976C40.776 39.3209 42.5396 37.3291 43.9443 35.0959C45.3454 32.8655 46.3876 30.3892 46.8891 27.8728C47.1421 26.6162 47.2536 25.3541 47.2287 24.1267C47.2126 23.5133 47.1618 22.9092 47.0773 22.3184C46.9917 21.7282 46.8719 21.1517 46.72 20.5945C46.6796 20.4578 46.6407 20.3139 46.6002 20.1833C46.58 20.1194 46.5598 20.0549 46.5396 19.9915L46.5095 19.8956C46.5053 19.8807 46.4986 19.862 46.4919 19.8433L46.4716 19.7871C46.4452 19.7127 46.4182 19.6377 46.3918 19.5633L46.3721 19.5076L46.3622 19.4795C46.3622 19.4795 46.3467 19.4393 46.3612 19.4735L46.3228 19.3754C46.272 19.2442 46.2207 19.1136 46.1704 18.9841C45.9541 18.4715 45.7146 17.981 45.4538 17.5142C45.1867 17.0534 44.902 16.6142 44.5987 16.2036C44.524 16.0994 44.4431 16.003 44.3659 15.9027C44.327 15.8531 44.2881 15.8035 44.2492 15.7538C44.2098 15.7048 44.1683 15.6585 44.1284 15.6111C44.0475 15.5163 43.9671 15.4221 43.8867 15.3278C43.8032 15.2374 43.7203 15.1476 43.6373 15.0583C43.5958 15.0137 43.5554 14.9679 43.5129 14.9249C43.4698 14.8825 43.4273 14.8401 43.3848 14.7982C43.2992 14.7139 43.2152 14.6284 43.1297 14.5463C43.042 14.4664 42.9549 14.387 42.8688 14.3077C42.8253 14.268 42.7828 14.2272 42.7387 14.1892C42.6941 14.1517 42.65 14.1142 42.6059 14.0773C42.5173 14.0023 42.4296 13.9285 42.342 13.8541C42.2518 13.7841 42.1621 13.7147 42.0729 13.6458C41.8966 13.5036 41.7125 13.3807 41.5347 13.2506C40.8139 12.7474 40.0838 12.3495 39.3791 12.0166C38.6734 11.6848 37.9874 11.4374 37.3449 11.2329C36.7014 11.0279 36.0968 10.8939 35.5471 10.7788C35.4092 10.7523 35.2749 10.7264 35.1447 10.7016C35.0135 10.6812 34.8865 10.6608 34.7631 10.6415C34.5163 10.598 34.2829 10.5726 34.0657 10.544C34.0112 10.5374 33.9578 10.5302 33.906 10.5236C33.8536 10.5186 33.8022 10.5137 33.7519 10.5092C33.6514 10.4993 33.5544 10.49 33.4621 10.4811C33.2765 10.4596 33.109 10.4525 32.9581 10.4409C32.6563 10.4178 32.4219 10.4111 32.2653 10.404C32.1082 10.3968 32.0268 10.393 32.0268 10.393L32.0263 10.3919Z" fill="#F44E19"/>
</svg>
